<svg xmlns="http://www.w3.org/2000/svg" width="976.2159" height="290" viewBox="0 0 976.2159 290"><g id="Layer_2" data-name="Layer 2"><rect x="1.2159" y="0.5" width="974.5" height="289" rx="144.4999" fill="#e9e9f5"/><path d="M839,294.5H153.5c-79.9531,0-145-65.0469-145-145s65.0469-145,145-145H839c79.9531,0,145,65.0469,145,145S918.9531,294.5,839,294.5ZM153.5,5.5c-79.4019,0-144,64.5981-144,144s64.5981,144,144,144H839c79.4023,0,144-64.5977,144-144S918.4023,5.5,839,5.5Z" transform="translate(-7.7841 -4.5)" fill="#fff"/><path d="M153.5,284C79.3364,284,19,223.6641,19,149.5S79.3364,15,153.5,15H839c74.1641,0,134.5,60.3364,134.5,134.5S913.1641,284,839,284Z" transform="translate(-7.7841 -4.5)" fill="#f8f8fc"/><path d="M839,284.5H153.5c-74.4395,0-135-60.56-135-135s60.5605-135,135-135H839c74.4395,0,135,60.5605,135,135S913.44,284.5,839,284.5ZM153.5,15.5c-73.8877,0-134,60.1123-134,134s60.1123,134,134,134H839c73.8877,0,134-60.1123,134-134s-60.1123-134-134-134Z" transform="translate(-7.7841 -4.5)" fill="#fff"/><text x="-7.7841" y="-4.5"/><path d="M445.82,178.08H430.1709l-5.59-15.8535H398.5654L392.9766,178.08H377.7324l27.2354-71.1367h13.8213Zm-26.1172-29.3692-4.5722-12.9062c-1.4229-4.1665-2.8457-8.4346-3.5577-11.0772-.7109,2.6426-2.1337,6.9107-3.5566,11.0772l-4.5732,12.9062Z" transform="translate(-7.7841 -4.5)" fill="#6363b0"/><path d="M498.46,178.08H484.4355v-3.3535a16.4431,16.4431,0,0,1-11.28,4.4716c-11.3819,0-20.7315-8.5361-20.7315-28.455,0-15.9546,7.52-27.1333,20.7315-27.1333a16.9027,16.9027,0,0,1,11.28,4.1665V111.0088l14.0245-7.0122Zm-14.0245-16.5645V141.394a11.1612,11.1612,0,0,0-9.4511-4.5732c-5.3858,0-8.333,4.6748-8.333,13.6177,0,10.9756,3.6591,15.5478,9.1465,15.5478C480.168,165.9863,482.4033,164.1582,484.4355,161.5156Z" transform="translate(-7.7841 -4.5)" fill="#6363b0"/><path d="M555.57,178.08H541.5459v-3.3535a16.4432,16.4432,0,0,1-11.28,4.4716c-11.3818,0-20.73-8.5361-20.73-28.455,0-15.9546,7.52-27.1333,20.73-27.1333a16.903,16.903,0,0,1,11.28,4.1665V111.0088l14.0244-7.0122Zm-14.0244-16.5645V141.394a11.1614,11.1614,0,0,0-9.4512-4.5732c-5.3857,0-8.333,4.6748-8.333,13.6177,0,10.9756,3.6582,15.5478,9.1465,15.5478C537.2783,165.9863,539.5137,164.1582,541.5459,161.5156Z" transform="translate(-7.7841 -4.5)" fill="#6363b0"/><path d="M656.7842,129.5039c0,16.4629-10.9756,23.3735-25.711,23.3735h-15.65V178.08H601.1963V106.9434H632.293C645.707,106.9434,656.7842,114.3623,656.7842,129.5039Zm-14.6338.3052c0-6.1992-4.0654-9.0445-10.3662-9.0445H615.4229v18.292h16.5654C638.5937,139.0566,642.15,136.0078,642.15,129.8091Z" transform="translate(-7.7841 -4.5)" fill="#6363b0"/><path d="M711.3535,151.4546c0,16.3618-10.2637,27.7436-24.1865,27.7436s-24.085-11.3818-24.085-27.7436S673.2451,123.61,687.167,123.61,711.3535,135.0933,711.3535,151.4546Zm-14.2275,0c0-8.13-3.252-14.3286-9.959-14.3286s-9.8574,6.0971-9.8574,14.3286,3.15,14.227,9.8574,14.227S697.126,158.873,697.126,151.4546Z" transform="translate(-7.7841 -4.5)" fill="#6363b0"/><path d="M763.3828,162.5317c0,12.2964-9.7558,16.6665-21.7471,16.6665-8.4345,0-16.667-2.4394-22.3574-6.1992l4.6748-10.67a37.2339,37.2339,0,0,0,18.4951,4.8784c5.4883,0,7.1143-1.3222,7.1143-4.0654,0-2.439-1.9316-3.6587-7.8252-5.3862-12.8047-3.8618-21.0361-7.0122-21.0361-18.2925,0-11.0767,8.8408-15.853,21.3408-15.853a42.5291,42.5291,0,0,1,19.7148,5.1826L757.2852,139.87a34.5719,34.5719,0,0,0-15.5479-4.268c-5.6914,0-7.2158,1.1176-7.2158,3.455,0,2.2359,1.626,3.15,11.0771,6.1993C755.1514,148.4062,763.3828,151.8613,763.3828,162.5317Z" transform="translate(-7.7841 -4.5)" fill="#6363b0"/><path d="M806.5713,161.7188l-2.0322,14.2265a18.6678,18.6678,0,0,1-10.8741,3.2529c-8.6377,0-14.2275-6.708-14.2275-16.0566V137.939h-8.9424V124.7275h8.9424V111.0088l14.0244-7.0122v20.7309h12.8047V137.939H793.4619v21.4423c0,5.0816,1.8291,6.4019,5.1826,6.4019C801.1846,165.7832,803.1162,164.666,806.5713,161.7188Z" transform="translate(-7.7841 -4.5)" fill="#6363b0"/></g><g id="Layer_1" data-name="Layer 1"><circle cx="143.0495" cy="144.9246" r="142.5754" fill="#6363b0"/><path id="shadow" d="M234.286,34.04C30.2042,25.2829,23.5,212.992,23.4534,214.3525A142.6017,142.6017,0,0,1,234.286,34.04Z" transform="translate(-7.7841 -4.5)" opacity="0.2"/><path id="add" d="M219.8416,130.7369H169.4335V80.3288a6.6467,6.6467,0,0,0-6.6272-6.6272H138.3354a6.6467,6.6467,0,0,0-6.6273,6.6272v50.4081H81.3a6.6467,6.6467,0,0,0-6.6272,6.6273v24.4709A6.6466,6.6466,0,0,0,81.3,168.4623h50.4081V218.87a6.6468,6.6468,0,0,0,6.6273,6.6273h24.4709a6.6468,6.6468,0,0,0,6.6272-6.6273V168.4623h50.4081a6.6467,6.6467,0,0,0,6.6273-6.6272V137.3642A6.6468,6.6468,0,0,0,219.8416,130.7369Z" transform="translate(-7.7841 -4.5)" fill="#fff"/></g></svg>