<svg xmlns="http://www.w3.org/2000/svg" width="780.2512" height="779.2632" viewBox="0 0 780.2512 779.2632"><circle cx="390.7732" cy="389.7851" r="389.478" fill="#6363b0"/><path d="M628.3543,85.3218C70.8572,61.4,52.5417,574.1711,52.4157,577.8878A387.672,387.672,0,0,1,9.6112,400.2131c0-215.1088,174.3832-389.4763,389.4763-389.4763A387.8024,387.8024,0,0,1,628.3543,85.3218Z" transform="translate(-9.6112 -10.7368)" opacity="0.2"/><path d="M588.8961,349.4721H451.1945V211.7705a18.157,18.157,0,0,0-18.1038-18.1038h-66.848a18.1571,18.1571,0,0,0-18.1039,18.1038V349.4721H210.4372a18.1571,18.1571,0,0,0-18.1038,18.1039v66.848a18.157,18.157,0,0,0,18.1038,18.1038H348.1388V590.2294a18.1571,18.1571,0,0,0,18.1039,18.1039h66.848a18.157,18.157,0,0,0,18.1038-18.1039V452.5278H588.8961A18.1571,18.1571,0,0,0,607,434.424V367.576A18.1572,18.1572,0,0,0,588.8961,349.4721Z" transform="translate(-9.6112 -10.7368)" fill="#fff"/></svg>