<svg xmlns="http://www.w3.org/2000/svg" width="780.2512" height="779.2632" viewBox="0 0 780.2512 779.2632"><circle cx="390.7732" cy="389.7851" r="389.478" fill="#434378" opacity="0.71"/><path d="M628.3543,85.3218C70.8572,61.4,52.5417,574.1711,52.4157,577.8878A387.672,387.672,0,0,1,9.6112,400.2131c0-215.1088,174.3832-389.4763,389.4763-389.4763A387.8024,387.8024,0,0,1,628.3543,85.3218Z" transform="translate(-9.6112 -10.7368)" opacity="0.2"/><path d="M397.4452,618.9041c21.26.2014,57.8287-32.7975,46.8831-96.296l143.17,2.6329c19.8736.1912,34.0169-19.987,33.0568-36.9956-1.8405-32.7473-49.74-30.3734-49.74-30.3734s-57.4893-20.87-69.8609-184.8638c-5.0652-67.1518-40.11-101.4-102.6738-104.19-52.9873-2.36-103.516,38.2131-104.8395,101.0665C289.46,458.657,225.0725,454.4921,225.0725,454.4921s-42.8307-2.8561-46.313,34.7391C177.2322,505.7548,194.5662,521.81,214.4355,522l140.1149-.6327c-7.4212,65.7184,21.6245,97.3309,42.8948,97.5368" transform="translate(-9.6112 -10.7368)" fill="#fff" fill-rule="evenodd"/></svg>