<svg xmlns="http://www.w3.org/2000/svg" width="38.115" height="38.144" viewBox="0 0 38.115 38.144">
  <path id="btn-liked" d="M11200,9634.764h9.678c2.174,0,5.982,1.042,7.027,1.937a8.137,8.137,0,0,0,5.627,1.728c2.344,0,8.486-.034,11.176-.588a2.157,2.157,0,0,0,1.719-1.187,5.755,5.755,0,0,0,.357-2.282,3.715,3.715,0,0,0-.078-.752c-.031-.142.051-.179.09-.187s.078-.016.109-.026c1.082-.269,1.367-1.76,1.367-3.43a2.1,2.1,0,0,0-.85-1.952.079.079,0,0,1,.016-.142c.055-.01.1-.017.143-.027,1.09-.282,1.375-1.714,1.375-3.451a1.968,1.968,0,0,0-1.592-2.25c-.154-.046-.1-.155.064-.176a3.265,3.265,0,0,0,.457-.079c1.131-.3,1.43-1.814,1.43-3.661s-.865-2.44-2.412-2.68c-1.471-.224-8.412-.37-9.113-.385.193-2.024,4.275-3.61,4-9.4-.277-5.875-3.928-5.479-3.928-5.479-2.937,0-1.391,5.957-3.494,7.584s-4.568,3.694-5.52,5.877-2.3,5.163-5.8,5.163H11200Z" transform="translate(-11200 -9600.284)" fill="#64b7ff" fill-rule="evenodd"/>
</svg>
