<svg id="Layer_2" data-name="Layer 2" xmlns="http://www.w3.org/2000/svg" width="1164.6667" height="1164.6667" viewBox="0 0 1164.6667 1164.6667"><circle cx="582.3333" cy="582.3333" r="582.3333" fill="#64b7ff"/><path d="M967.7414,276.8068,1152.7763,409s185.9726,510.57-372.4927,745.6857L476.38,940.07Z" transform="translate(-20.1667 -17.6667)" fill="#2d4e81" opacity="0.35"/><path d="M950.9372,261.2831l0,0C910.79,231.2386,854.08,240.4956,824.9154,281.8539L508.1147,731.11,326.5621,595.2444C286.415,565.2,229.7052,574.4568,200.5406,615.8153l0,0c-29.1646,41.3586-20.1788,99.7793,19.9685,129.8238L475.0563,936.1315l0,0c40.1474,30.0446,96.8572,20.7877,126.0218-20.5709l0,0L970.9059,391.107C1000.0705,349.7484,991.0846,291.3277,950.9372,261.2831Z" transform="translate(-20.1667 -17.6667)" fill="#fff"/></svg>