<svg xmlns="http://www.w3.org/2000/svg" width="781.3333" height="781.3334" viewBox="0 0 781.3333 781.3334"><path d="M401.2181,9.6666c-215.7593,0-390.6666,174.9074-390.6666,390.6667S185.4588,791,401.2181,791,791.8848,616.0925,791.8848,400.3333,616.9774,9.6666,401.2181,9.6666ZM608.8965,518.1822a51.4481,51.4481,0,0,1,0,72.5455l-25.8128,25.8129a51.4482,51.4482,0,0,1-72.5456,0L398.1074,504.11,285.6766,616.5406a51.4481,51.4481,0,0,1-72.5455,0l-25.8126-25.8129a51.4482,51.4482,0,0,1,0-72.5455L299.7492,405.7515,187.3185,293.3207a51.4484,51.4484,0,0,1,0-72.5456l25.8126-25.8126a51.4482,51.4482,0,0,1,72.5455,0L398.1074,307.3932,510.5381,194.9625a51.4484,51.4484,0,0,1,72.5456,0l25.8128,25.8126a51.4482,51.4482,0,0,1,0,72.5456L496.4658,405.7515Z" transform="translate(-10.5515 -9.6666)" fill="#e56827"/></svg>