<svg xmlns="http://www.w3.org/2000/svg" width="781.3333" height="781.3333" viewBox="0 0 781.3333 781.3333"><circle cx="390.6667" cy="390.6667" r="390.6667" fill="#e56827"/><path d="M187.3185,220.7752l25.8126-25.8127a51.4484,51.4484,0,0,1,72.5456,0l323.22,323.22a51.4481,51.4481,0,0,1,0,72.5455l-25.8128,25.8129a51.4481,51.4481,0,0,1-72.5455,0l-323.22-323.22A51.4481,51.4481,0,0,1,187.3185,220.7752Z" transform="translate(-10.5514 -9.6667)" fill="#fff"/><path d="M608.8965,220.7752l-25.8128-25.8127a51.4482,51.4482,0,0,0-72.5455,0l-323.22,323.22a51.4481,51.4481,0,0,0,0,72.5455l25.8126,25.8129a51.4482,51.4482,0,0,0,72.5456,0l323.22-323.22A51.4481,51.4481,0,0,0,608.8965,220.7752Z" transform="translate(-10.5514 -9.6667)" fill="#fff"/></svg>