<svg id="Layer_14" data-name="Layer 14" xmlns="http://www.w3.org/2000/svg" width="717.5032" height="717.5032" viewBox="0 0 717.5032 717.5032"><path d="M561.972,405.6665,740.6406,226.9979a81.7586,81.7586,0,0,0,0-115.2853l-41.02-41.02a81.7586,81.7586,0,0,0-115.2853,0L405.6666,249.3612,226.9979,70.6927a81.7586,81.7586,0,0,0-115.2853,0l-41.02,41.02a81.7586,81.7586,0,0,0,0,115.2853L249.3612,405.6665,70.6927,584.335a81.7586,81.7586,0,0,0,0,115.2853l41.02,41.02a81.7586,81.7586,0,0,0,115.2853,0L405.6666,561.972,584.335,740.6406a81.7586,81.7586,0,0,0,115.2853,0l41.02-41.02a81.7586,81.7586,0,0,0,0-115.2853Z" transform="translate(-46.9151 -46.9151)" fill="#fbd8a1"/></svg>