<svg id="close_no_bg" data-name="close no bg" xmlns="http://www.w3.org/2000/svg" width="717.5031" height="717.5031" viewBox="0 0 717.5031 717.5031"><path d="M63.1336,111.7976l41.02-41.02a81.7586,81.7586,0,0,1,115.2853,0L733.0815,584.42a81.7586,81.7586,0,0,1,0,115.2853l-41.02,41.02a81.7586,81.7586,0,0,1-115.2853,0L63.1336,227.0828A81.7585,81.7585,0,0,1,63.1336,111.7976Z" transform="translate(-39.356 -47)" fill="#e56827"/><path d="M733.0815,111.7976l-41.02-41.02a81.7586,81.7586,0,0,0-115.2853,0L63.1336,584.42a81.7586,81.7586,0,0,0,0,115.2853l41.02,41.02a81.7586,81.7586,0,0,0,115.2853,0L733.0815,227.0828A81.7585,81.7585,0,0,0,733.0815,111.7976Z" transform="translate(-39.356 -47)" fill="#e56827"/></svg>