<svg xmlns="http://www.w3.org/2000/svg" width="718.772" height="718.6667" viewBox="0 0 718.772 718.6667"><path d="M266.193,397.4034H524.8245a56.1923,56.1923,0,0,0,56.14-56.14V94.14A56.2148,56.2148,0,0,0,524.8245,38H98.0877a56.2373,56.2373,0,0,0-56.14,56.14V341.263a56.2148,56.2148,0,0,0,56.14,56.14h33.6842V532ZM704.579,262.7368H625.8771V341.263A101.1688,101.1688,0,0,1,524.8245,442.3157H285.2105L221.6666,507.79v58.14a56.1924,56.1924,0,0,0,56.14,56.14H536.4736L670.86,756.6667V622.07H704.579a56.1922,56.1922,0,0,0,56.14-56.14V318.8421A56.1848,56.1848,0,0,0,704.579,262.7368Z" transform="translate(-41.9473 -38)" fill="#64b7ff"/></svg>