<?xml version="1.0" encoding="utf-8"?>
<!-- Generator: Adobe Illustrator 25.2.3, SVG Export Plug-In . SVG Version: 6.00 Build 0)  -->
<svg version="1.1" id="Layer_1" xmlns="http://www.w3.org/2000/svg" xmlns:xlink="http://www.w3.org/1999/xlink" x="0px" y="0px"
	 viewBox="0 0 59.2 54.9" style="enable-background:new 0 0 59.2 54.9;" xml:space="preserve">
<style type="text/css">
	.st0{fill:#64B7FF;}
</style>
<path id="freinds_request_icon" class="st0" d="M37.4,33.1c-1.9-0.9-1.8-4.1-1.8-5.3c1.5-1.7,2.3-4.5,2.9-7.1c1.4-0.3,2.8-4.1,2.3-6
	c-0.4-1.4-1.2-1.3-1.6-1.1c0-1.7,0-3.1,0-4.8C38.9,0.5,31.3,0,29.6,0S20.3,0.5,20,8.9c0,1.7-0.1,3.1,0,4.8c-0.4-0.2-1.1-0.3-1.6,1.1
	c-0.6,1.9,0.9,5.7,2.3,6c0.5,2.7,1.4,5.5,2.9,7.1c0.1,1.2,0.1,4.4-1.8,5.3c-2.5,1.2-16.3,3.2-16.3,9.8v12h48.1v-12
	C53.6,36.3,39.8,34.3,37.4,33.1z M15,31.2c-1.1-0.5-1.1-2.5-1.1-3.2c0.9-1.3,1.6-2.8,1.8-4.4c0.9-0.2,1.7-2.5,1.4-3.7
	c-0.3-0.9-0.7-0.8-1-0.7c0-1.1,0-1.9,0-2.9c-0.1-5.2-4.8-5.5-5.9-5.5s-5.7,0.3-5.9,5.5c0,1,0,1.9,0,2.9c-0.2-0.1-0.7-0.2-1,0.7
	C3,21,3.8,23.3,4.7,23.5c0.2,1.6,0.8,3.1,1.8,4.4c0.1,0.7,0.1,2.7-1.1,3.2C4.7,31.5,2.3,32,0,32.8v22h2.8v-13
	c0-6.1,7.8-8.8,13.3-10.4C15.7,31.4,15.3,31.3,15,31.2L15,31.2z M53.8,31.2c-1.1-0.5-1.1-2.5-1.1-3.2c0.9-1.3,1.6-2.8,1.8-4.4
	c0.9-0.2,1.7-2.5,1.4-3.7c-0.3-0.9-0.7-0.8-1-0.7c0-1.1,0-1.9,0-2.9c-0.1-5.2-4.8-5.5-5.9-5.5s-5.7,0.3-5.9,5.5c0,1,0,1.9,0,2.9
	c-0.2-0.1-0.7-0.2-1,0.7c-0.4,1.2,0.5,3.5,1.4,3.7c0.2,1.6,0.8,3.1,1.8,4.4c0.1,0.7,0.1,2.7-1.1,3.2c-0.4,0.2-0.8,0.3-1.2,0.4
	c5.6,1.6,13.3,4.2,13.3,10.4v13h2.8v-22C56.9,32,54.5,31.5,53.8,31.2L53.8,31.2z"/>
</svg>
