<svg id="Layer_1" data-name="Layer 1" xmlns="http://www.w3.org/2000/svg" width="758.6321" height="500.5345" viewBox="0 0 758.6321 500.5345"><path d="M255.6853,191.3075c-.4953-.8312-.9793-1.6737-1.4574-2.5162q-2.3821-4.2351-4.4457-8.6637c-.3928-.8425-.7743-1.685-1.15-2.5387a125.24,125.24,0,0,1-6.4436-18.42c-.8711-3.3017-1.6223-6.6545-2.2316-10.0529q-.8368-4.6788-1.32-9.472-.3244-3.1932-.49-6.4379c-.114-2.1574-.165-4.3319-.165-6.5177s-.2006-4.36-.081-6.5176c.0625-1.3264.01-2.6415.01-3.9564V116.18c0-.0731.0166-.1463.0225-.2194a16.5068,16.5068,0,0,1-1.5-.7995c-.1081-.0625-.2219-.1251-.3416-.1822.59.2922,1.2946.5959,1.8494.9048.0748-.7164.3734-1.4361.4433-2.1513.08-.797.3051-1.594.4018-2.3909.2848-2.3793.6965-4.7417,1.1178-7.0811.1789-.9984.399-1.9843.6047-2.9747a98.4032,98.4032,0,0,0-7.0071-7.4172q-.913-.8733-1.8479-1.72-1.6209-1.4687-3.3034-2.8623-1.1049-.913-2.2361-1.7951-2.5-1.9515-5.12-3.74c-.2514-.1719-.5073-.344-.7588-.5116a97.7674,97.7674,0,0,0-13.9365-7.7578c-.1368-.0661-.2778-.1236-.419-.19a97.0867,97.0867,0,0,0-14.2454-5.0939q-1.5548-.4236-3.1314-.8028a98.364,98.364,0,0,0-15.1892-2.3684c-1.6627-.1233-3.3388-.2117-5.019-.2513-.8425-.0221-1.6892-.0309-2.536-.0309s-1.6892.0088-2.5316.0309c-1.6847.04-3.3562.128-5.0189.2513a98.3458,98.3458,0,0,0-15.1938,2.3684q-1.5744.3771-3.1311.8028a97.0734,97.0734,0,0,0-14.2456,5.0939c-.1412.066-.2779.1235-.419.19A97.7225,97.7225,0,0,0,111.2867,83.24c-.2558.1676-.5071.34-.7587.5116q-2.6262,1.7861-5.1247,3.74-1.1247.88-2.2317,1.7951-1.6869,1.3958-3.3079,2.8623-.9462.86-1.8658,1.7377a98.7111,98.7111,0,0,0-16.68,20.9492c-.3838.6438-.76,1.2965-1.13,1.9492q-1.8459,3.2814-3.4461,6.7126c-.1545.3265-.3078.6527-.4533.9791s-.2979.6571-.4435.988a97.0768,97.0768,0,0,0-5.0061,14.2719c-.6748,2.5581-1.2752,5.1556-1.7471,7.7888-.3263,1.8125-.6454,3.6429-.866,5.4864-.0749.6174-.25,1.2348-.3113,1.8522-.0541.5543-.2855,1.1118-.3435,1.6669-.43-.24-.9756-.4746-1.4329-.7011.0927.0443.181.0928.2647.1412a12.7,12.7,0,0,0,1.1621.6193c-.0046.0567-.0175.1136-.0175.17v.0265c0,1.0188.0408,2.0376-.0076,3.0654-.0926,1.6713.0627,3.3561.0627,5.05s.04,3.3784.1279,5.05q.1257,2.514.3793,4.988.3768,3.7115,1.0231,7.3388c.472,2.6331,1.0541,5.2309,1.7289,7.7889a97.0352,97.0352,0,0,0,4.9926,14.2718c.2909.6615.5865,1.3142.8909,1.967q1.5944,3.4269,3.4444,6.7126c.37.6528.7454,1.3055,1.1292,1.95a98.4182,98.4182,0,0,0,15.0349,19.3438q1.713,1.7133,3.51,3.3429,1.6211,1.469,3.3077,2.8624,1.1047.913,2.2317,1.7951,2.5005,1.9515,5.1248,3.74c.2515.1721.5027.344.7586.5115q3.804,2.547,7.8549,4.7368,2.9769,1.6141,6.0775,3.0211c.1411.0661.2778.1235.419.19a97.0747,97.0747,0,0,0,14.2456,5.0942q1.5543.4233,3.1311.8026a98.3458,98.3458,0,0,0,15.1938,2.3684c1.6627.1235,3.3342.2117,5.0189.2514q1.2636.033,2.5316.0311,1.27,0,2.536-.0311c1.68-.04,3.3563-.1279,5.019-.2514a98.3761,98.3761,0,0,0,15.1892-2.3684q1.5741-.3769,3.1314-.8026a97.0764,97.0764,0,0,0,14.2454-5.0942c.1412-.066.2822-.1234.419-.19q3.4664-1.5744,6.7831-3.4047,3.6783-2.0246,7.1534-4.3532c.2515-.1675.5074-.3394.7588-.5115q2.6195-1.7862,5.12-3.74,1.131-.88,2.2361-1.7951,1.6806-1.3959,3.3034-2.8624c.6307-.5733,1.2569-1.1511,1.87-1.7376A98.5672,98.5672,0,0,0,250.2,214.9689c.3837-.644.7584-1.2967,1.1288-1.95q1.8525-3.2812,3.4491-6.7126c.3042-.6528.6-1.3055.8908-1.967,1.1581-2.6388,2.191-5.3456,3.1192-8.1013C257.7213,194.6167,256.6784,192.9788,255.6853,191.3075Z" transform="translate(-0.0001 -0.0003)" fill="#fbd8a1"/><path d="M252.7658,115.9607c-.0059.0731-.0225.1463-.0225.2194v.0341c0,1.3149.0526,2.63-.01,3.9564-.12,2.1572.081,4.3317.081,6.5176s.051,4.36.165,6.5177q.1623,3.2448.49,6.4379.4866,4.79,1.32,9.472c.6093,3.3984,1.3605,6.7512,2.2316,10.0529a125.24,125.24,0,0,0,6.4436,18.42c.3755.8537.757,1.6962,1.15,2.5387q2.0578,4.4231,4.4457,8.6637c.4781.8425.9621,1.685,1.4573,2.5162a127.036,127.036,0,0,0,19.4051,24.9664q2.2113,2.2113,4.531,4.3147,2.0922,1.8957,4.2692,3.6944,1.4259,1.1784,2.88,2.3168,3.2274,2.5188,6.6143,4.8269c.3247.2221.649.444.9791.66q4.91,3.2872,10.1382,6.1135,3.8422,2.0833,7.844,3.8993c.1821.0853.3585.1594.5408.2447a125.3033,125.3033,0,0,0,18.3863,6.5747q2.0061.5463,4.0412,1.0359a126.9325,126.9325,0,0,0,19.61,3.0568c2.1459.1593,4.3034.2732,6.4776.3244q1.6308.0429,3.2675.04,1.6395,0,3.2732-.04c2.1685-.0512,4.3319-.1651,6.4777-.3244a126.9762,126.9762,0,0,0,19.6044-3.0568q2.0317-.4864,4.0416-1.0359a125.3323,125.3323,0,0,0,18.3861-6.5747c.1822-.0853.3643-.1594.5409-.2447q4.4736-2.0323,8.7546-4.3944,4.7473-2.613,9.2328-5.6184c.3245-.2164.6549-.4383.9793-.66q3.381-2.3054,6.6087-4.827,1.46-1.1357,2.8861-2.3168,2.169-1.8018,4.2634-3.6944c.8141-.74,1.6223-1.4856,2.4136-2.2427a127.2171,127.2171,0,0,0,21.5228-27.0383c.4953-.8313.9789-1.6738,1.4569-2.5163q2.391-4.2349,4.4517-8.6637c.3925-.8424.774-1.6849,1.15-2.5386a125.8787,125.8787,0,0,0,6.438-18.42c.8707-3.3017,1.622-6.6545,2.2313-10.0528q.837-4.6788,1.3265-9.4721.3241-3.1932.4893-6.4379.1626-3.2361.1651-6.5177,0-3.2787-.1651-6.5176-.0936-1.725-.2221-3.444c-.08-1.0017-.1649-1.998-.2672-2.9941q-.4871-4.79-1.3265-9.472c-.6093-3.3984-1.3606-6.751-2.2313-10.0527a125.8816,125.8816,0,0,0-6.438-18.42c-.3758-.8539-.7573-1.6964-1.15-2.539q-2.0666-4.4227-4.4517-8.6637c-.478-.8425-.9616-1.6849-1.4569-2.5159a127.1452,127.1452,0,0,0-21.5513-27.0612q-1.1784-1.1271-2.3851-2.22-2.0916-1.8954-4.2634-3.6942-1.4259-1.1784-2.8861-2.3168-3.2277-2.5188-6.6087-4.8272c-.3244-.2218-.6547-.4439-.9793-.66a126.2283,126.2283,0,0,0-17.9874-10.0128c-.1766-.0853-.3587-.1594-.5409-.2447a125.3083,125.3083,0,0,0-18.3861-6.5745q-2.0067-.5466-4.0416-1.0362A127.0124,127.0124,0,0,0,389.2527.3647C387.1068.2055,384.9435.0915,382.775.04q-1.6311-.0428-3.2732-.04c-1.0932,0-2.18.0113-3.2675.04-2.1742.0512-4.3317.1652-6.4776.3244a126.9846,126.9846,0,0,0-19.61,3.0568q-2.0319.4869-4.0412,1.0362a125.2909,125.2909,0,0,0-18.3863,6.5745c-.1823.0853-.3587.1594-.5408.2447A126.177,126.177,0,0,0,309.1962,21.29c-.33.2164-.6544.4385-.9792.66q-3.3894,2.3055-6.6142,4.8272-1.4517,1.1358-2.88,2.3168-2.1773,1.8015-4.2694,3.6942-1.2211,1.11-2.4082,2.2429a127.4008,127.4008,0,0,0-21.5287,27.0384c-.4953.831-.9805,1.6734-1.4585,2.5159q-2.3822,4.2354-4.4479,8.6637c-.1992.4215-.397.8426-.585,1.2639s-.3845.848-.5724,1.2751a125.34,125.34,0,0,0-6.4611,18.42c-.871,3.3017-1.646,6.6543-2.2549,10.0527-.4213,2.3394-.833,4.7018-1.1178,7.0811-.0967.7969-.3221,1.5939-.4018,2.3909-.07.7152-.3685,1.4349-.4433,2.1513-.5548-.3089-1.2593-.6126-1.8494-.9048.12.0571.2335.12.3417.1822A16.5017,16.5017,0,0,0,252.7658,115.9607Z" transform="translate(-0.0001 -0.0003)" fill="#fbd8a1"/><path d="M152.645,367.212c0-2.1119-.0126-4.2123.09-6.2958a128.6712,128.6712,0,0,1,20.5564-63.9977c-3.014.255-6.045.4043-9.0951.4043a129.5677,129.5677,0,0,1-23.4675-2.13l-28.87-8.9486h-.0006a134.8735,134.8735,0,0,1-28.6542-17.1871,131.8561,131.8561,0,0,1-9.9626-8.6486q-3.91.9129-7.6958,2.161-.9459.3109-1.8869.6439-4.2205,1.4952-8.259,3.3917c-.5955.2822-1.1833.5689-1.7744.86A94.7269,94.7269,0,0,0,27.461,286.7516c-.4588.4764-.9.9616-1.3505,1.4466A99.3665,99.3665,0,0,0,.0705,350.83c-.08,1.6142-.07,3.2416-.07,4.8778V457.3484c0,2.086,1.9344,1.61,3.9279,1.61H152.645Z" transform="translate(-0.0001 -0.0003)" fill="#fbd8a1"/><path d="M502.9475,191.3075c.4953-.8312.9793-1.6737,1.4573-2.5162q2.3823-4.2351,4.4456-8.6637c.3929-.8425.7745-1.685,1.15-2.5387a125.2638,125.2638,0,0,0,6.4437-18.42c.871-3.3017,1.6222-6.6545,2.2316-10.0529q.8369-4.6788,1.32-9.472.3246-3.1932.49-6.4379c.114-2.1574.1649-4.3319.1649-6.5177s.2007-4.36.0811-6.5176c-.0625-1.3264-.01-2.6415-.01-3.9564V116.18c0-.0731-.0167-.1463-.0225-.2194a16.5068,16.5068,0,0,0,1.5-.7995c.1081-.0625.2219-.1251.3417-.1822-.59.2922-1.2947.5959-1.8494.9048-.0749-.7164-.3734-1.4361-.4433-2.1513-.08-.797-.3051-1.594-.4019-2.3909-.2848-2.3793-.6965-4.7417-1.1177-7.0811-.1789-.9984-.399-1.9843-.6048-2.9747a98.3843,98.3843,0,0,1,7.0072-7.4172q.9129-.8733,1.8479-1.72,1.6206-1.4687,3.3034-2.8623,1.1046-.913,2.236-1.7951,2.5007-1.9515,5.12-3.74c.2513-.1719.5072-.344.7587-.5116a97.7783,97.7783,0,0,1,13.9366-7.7578c.1367-.0661.2778-.1236.4191-.19a97.0826,97.0826,0,0,1,14.2454-5.0939q1.5546-.4236,3.1314-.8028a98.3621,98.3621,0,0,1,15.1892-2.3684c1.6626-.1233,3.3388-.2117,5.019-.2513.8425-.0221,1.6892-.0309,2.536-.0309s1.6891.0088,2.5316.0309c1.6846.04,3.3562.128,5.0188.2513a98.3471,98.3471,0,0,1,15.1939,2.3684q1.5746.3771,3.1311.8028a97.0787,97.0787,0,0,1,14.2457,5.0939c.1411.066.2778.1235.4188.19A97.7334,97.7334,0,0,1,647.3462,83.24c.2558.1676.5071.34.7588.5116q2.626,1.7861,5.1245,3.74,1.1249.88,2.2317,1.7951,1.6871,1.3958,3.3079,2.8623.9462.86,1.8658,1.7377a98.7111,98.7111,0,0,1,16.68,20.9492c.3837.6438.76,1.2965,1.13,1.9492q1.8456,3.2814,3.4461,6.7126c.1544.3265.3077.6527.4533.9791s.2978.6571.4435.988a97.08,97.08,0,0,1,5.006,14.2719c.6748,2.5581,1.2753,5.1556,1.7471,7.7888.3264,1.8125.6454,3.6429.866,5.4864.075.6174.25,1.2348.3114,1.8522.0541.5543.2855,1.1118.3434,1.6669.43-.24.9757-.4746,1.4329-.7011-.0927.0443-.181.0928-.2646.1412a12.7,12.7,0,0,1-1.1621.6193c.0045.0567.0175.1136.0175.17v.0265c0,1.0188-.0409,2.0376.0077,3.0654.0925,1.6713-.0628,3.3561-.0628,5.05s-.0395,3.3784-.1279,5.05q-.1258,2.514-.3792,4.988-.3771,3.7115-1.0232,7.3388c-.472,2.6331-1.0541,5.2309-1.7289,7.7889a97.0464,97.0464,0,0,1-4.9925,14.2718c-.2909.6615-.5866,1.3142-.8909,1.967q-1.5945,3.4269-3.4445,6.7126c-.37.6528-.7455,1.3055-1.1291,1.95a98.4333,98.4333,0,0,1-15.0349,19.3438q-1.7131,1.7133-3.51,3.3429-1.6212,1.469-3.3078,2.8624-1.1045.913-2.2316,1.7951-2.5007,1.9515-5.1247,3.74c-.2516.1721-.5029.344-.7586.5115q-3.8042,2.547-7.855,4.7368-2.9769,1.6141-6.0775,3.0211c-.141.0661-.2778.1235-.4189.19a97.0747,97.0747,0,0,1-14.2456,5.0942q-1.5543.4233-3.1311.8026a98.3509,98.3509,0,0,1-15.1939,2.3684c-1.6626.1235-3.3343.2117-5.0188.2514-.8426.022-1.6849.0311-2.5317.0311s-1.6934-.0091-2.536-.0311c-1.68-.04-3.3564-.1279-5.019-.2514a98.3659,98.3659,0,0,1-15.1892-2.3684q-1.5742-.3769-3.1314-.8026a97.0681,97.0681,0,0,1-14.2454-5.0942c-.1412-.066-.2823-.1234-.4191-.19q-3.4662-1.5744-6.783-3.4047-3.6785-2.0246-7.1535-4.3532c-.2516-.1675-.5074-.3394-.7588-.5115q-2.62-1.7862-5.12-3.74-1.1312-.88-2.236-1.7951-1.6806-1.3959-3.3034-2.8624c-.6307-.5733-1.2569-1.1511-1.87-1.7376a98.5667,98.5667,0,0,1-16.6757-20.9491c-.3838-.644-.7585-1.2967-1.1288-1.95q-1.8525-3.2812-3.4491-6.7126c-.3042-.6528-.6-1.3055-.8908-1.967-1.1582-2.6388-2.191-5.3456-3.1192-8.1013C500.9114,194.6167,501.9543,192.9788,502.9475,191.3075Z" transform="translate(-0.0001 -0.0003)" fill="#fbd8a1"/><path d="M605.9877,367.212c0-2.1119.0126-4.2123-.09-6.2958a128.6732,128.6732,0,0,0-20.5564-63.9977c3.0139.255,6.0449.4043,9.0951.4043a129.5666,129.5666,0,0,0,23.4674-2.13l28.87-8.9486h0a134.8718,134.8718,0,0,0,28.6542-17.1871,131.8576,131.8576,0,0,0,9.9627-8.6486q3.91.9129,7.6956,2.161.946.3109,1.8869.6439,4.2207,1.4952,8.259,3.3917c.5955.2822,1.1833.5689,1.7745.86a94.7229,94.7229,0,0,1,26.1647,19.2865c.4588.4764.9.9616,1.35,1.4466A99.3675,99.3675,0,0,1,758.5619,350.83c.0795,1.6142.07,3.2416.07,4.8778V457.3484c0,2.086-1.9344,1.61-3.928,1.61H605.9877Z" transform="translate(-0.0001 -0.0003)" fill="#fbd8a1"/><path d="M590.0405,360.7316c-2.6923-57.1679-41.7953-104.7979-93.7435-116.8884a174.6348,174.6348,0,0,1-17.2361,14.2088,5.6052,5.6052,0,0,1-3.0171,1.4533h-.0056c-9.13,9.268-18.8416,12.97-29.1449,17.53-2.0946.928-4.1953,2.7638-6.3126,3.5948-5.3338,2.1175-25.291,6.9532-26.6968,7.2492a158.8345,158.8345,0,0,1-64.7728,1.2289l-37.2614-11.55h0a174.0755,174.0755,0,0,1-36.983-22.1828,170.1936,170.1936,0,0,1-12.8585-11.1626q-5.0465,1.1784-9.9327,2.789-1.221.4015-2.4353.8312-5.4474,1.93-10.66,4.3775c-.7685.3642-1.5272.7342-2.29,1.11a122.2627,122.2627,0,0,0-33.77,24.8925c-.5921.6149-1.1622,1.241-1.743,1.8672a128.2484,128.2484,0,0,0-33.61,80.8364c-.1027,2.0835-.09,4.1839-.09,6.2958V498.3971c0,2.6923,2.4966,2.0773,5.07,2.0773H586.4579c2.573,0,3.6421.615,3.6421-2.0773V367.212C590.1005,365.1,590.1433,362.815,590.0405,360.7316Z" transform="translate(-0.0001 -0.0003)" fill="#fbd8a1"/></svg>