<svg xmlns="http://www.w3.org/2000/svg" width="758.6327" height="500.5349" viewBox="0 0 758.6327 500.5349"><path d="M278.2748,340.3075c-.4953-.8312-.9793-1.6737-1.4574-2.5162q-2.3822-4.2351-4.4457-8.6637c-.3928-.8425-.7743-1.685-1.15-2.5387a125.2409,125.2409,0,0,1-6.4436-18.42c-.8711-3.3017-1.6223-6.6545-2.2316-10.0529q-.8368-4.6788-1.32-9.472-.3245-3.1932-.49-6.4379c-.114-2.1574-.165-4.3319-.165-6.5177s-.2006-4.36-.081-6.5176c.0625-1.3264.01-2.6415.01-3.9564V265.18c0-.0731.0166-.1463.0225-.2194a16.5155,16.5155,0,0,1-1.5-.7995c-.1081-.0625-.2219-.1251-.3416-.1822.59.2922,1.2946.5959,1.8494.9048.0748-.7164.3734-1.4361.4433-2.1513.08-.797.3051-1.594.4018-2.3909.2848-2.3793.6965-4.7417,1.1178-7.0811.1789-.9984.399-1.9843.6047-2.9747a98.4009,98.4009,0,0,0-7.0071-7.4172q-.913-.8733-1.8479-1.72-1.6208-1.4686-3.3034-2.8623-1.1048-.913-2.2361-1.7951-2.5005-1.9515-5.12-3.74c-.2514-.1719-.5073-.344-.7588-.5116a97.7713,97.7713,0,0,0-13.9365-7.7578c-.1368-.0661-.2778-.1236-.419-.19a97.0922,97.0922,0,0,0-14.2454-5.0939q-1.5547-.4236-3.1314-.8028a98.374,98.374,0,0,0-15.1892-2.3684c-1.6627-.1233-3.3388-.2117-5.019-.2513-.8425-.0221-1.6892-.0309-2.536-.0309s-1.6892.0088-2.5316.0309c-1.6847.04-3.3562.128-5.0189.2513a98.346,98.346,0,0,0-15.1938,2.3684q-1.5744.3772-3.1311.8028a97.0822,97.0822,0,0,0-14.2456,5.0939c-.1412.066-.2779.1235-.419.19a97.7323,97.7323,0,0,0-13.9324,7.7578c-.2558.1676-.5071.34-.7587.5116q-2.6262,1.7862-5.1247,3.74-1.1247.88-2.2317,1.7951-1.6869,1.3957-3.3079,2.8623-.9461.86-1.8658,1.7377a98.7122,98.7122,0,0,0-16.68,20.9492c-.3838.6438-.76,1.2965-1.13,1.9492q-1.8458,3.2814-3.4461,6.7126c-.1545.3265-.3078.6527-.4533.9792s-.2979.657-.4435.9879a97.0931,97.0931,0,0,0-5.0061,14.2719c-.6748,2.5581-1.2752,5.1556-1.7471,7.7888-.3263,1.8125-.6454,3.6429-.866,5.4864-.0749.6174-.25,1.2349-.3113,1.8523-.0541.5543-.2855,1.1118-.3435,1.6669-.43-.24-.9756-.4746-1.4329-.7011.0927.0443.181.0928.2647.1412a12.7226,12.7226,0,0,0,1.1621.6193c-.0046.0567-.0175.1136-.0175.17v.0265c0,1.0188.0408,2.0376-.0076,3.0654-.0926,1.6713.0627,3.3561.0627,5.05s.04,3.3784.1279,5.05q.1258,2.514.3793,4.988.3769,3.7114,1.0231,7.3388c.472,2.6331,1.0541,5.2309,1.7289,7.7889a97.0393,97.0393,0,0,0,4.9926,14.2718c.2909.6615.5865,1.3142.8909,1.967q1.5944,3.4269,3.4444,6.7126c.37.6528.7454,1.3055,1.1292,1.95a98.4242,98.4242,0,0,0,15.0349,19.3438q1.7131,1.7133,3.51,3.3429,1.6211,1.4688,3.3077,2.8624,1.1048.913,2.2317,1.7951,2.5006,1.9515,5.1248,3.74c.2515.1721.5028.344.7586.5115q3.804,2.547,7.8549,4.7368,2.9769,1.6141,6.0775,3.0211c.1411.0661.2778.1235.419.19a97.0717,97.0717,0,0,0,14.2456,5.0942q1.5543.4233,3.1311.8026a98.3581,98.3581,0,0,0,15.1938,2.3684c1.6627.1235,3.3342.2117,5.0189.2513q1.2636.0331,2.5316.0311,1.27,0,2.536-.0311c1.68-.04,3.3563-.1278,5.019-.2513a98.3861,98.3861,0,0,0,15.1892-2.3684q1.5742-.377,3.1314-.8026a97.0817,97.0817,0,0,0,14.2454-5.0942c.1412-.066.2822-.1234.419-.19q3.4664-1.5745,6.7831-3.4047,3.6783-2.0245,7.1534-4.3532c.2515-.1675.5074-.3394.7588-.5115q2.6194-1.7862,5.12-3.74,1.1311-.88,2.2361-1.7951,1.6806-1.3959,3.3034-2.8624c.6307-.5733,1.2569-1.1511,1.87-1.7376a98.567,98.567,0,0,0,16.6758-20.9491c.3837-.644.7584-1.2967,1.1288-1.95q1.8525-3.2812,3.4491-6.7126c.3042-.6528.6-1.3055.8908-1.967,1.1581-2.6388,2.191-5.3456,3.1192-8.1013C280.3108,343.6167,279.2679,341.9788,278.2748,340.3075Z" transform="translate(-22.5895 -149)" fill="#64b7ff"/><path d="M275.3553,264.9607c-.0059.0731-.0225.1463-.0225.2194v.0341c0,1.3149.0526,2.63-.01,3.9564-.12,2.1572.081,4.3317.081,6.5176s.051,4.36.165,6.5177q.1623,3.2448.49,6.4379.4866,4.79,1.32,9.472c.6093,3.3984,1.3605,6.7512,2.2316,10.0529a125.2409,125.2409,0,0,0,6.4436,18.42c.3755.8537.757,1.6962,1.15,2.5387q2.0579,4.4231,4.4457,8.6637c.4781.8425.9621,1.685,1.4573,2.5162a127.0367,127.0367,0,0,0,19.4051,24.9664q2.2113,2.2113,4.531,4.3147,2.0922,1.8957,4.2692,3.6944,1.4259,1.1784,2.88,2.3168,3.2274,2.5188,6.6143,4.8269c.3247.2221.649.444.9791.66q4.91,3.2872,10.1382,6.1135,3.8423,2.0833,7.844,3.8993c.1821.0853.3585.1594.5408.2447a125.2973,125.2973,0,0,0,18.3863,6.5747q2.0061.5463,4.0412,1.0359a126.9264,126.9264,0,0,0,19.61,3.0568c2.1459.1594,4.3034.2733,6.4776.3245q1.6309.0428,3.2675.04,1.6395,0,3.2732-.04c2.1685-.0512,4.3319-.1651,6.4777-.3245a126.9586,126.9586,0,0,0,19.6044-3.0568q2.0319-.4864,4.0416-1.0359a125.3114,125.3114,0,0,0,18.3861-6.5747c.1822-.0853.3643-.1594.5409-.2447q4.4737-2.0324,8.7546-4.3944,4.7475-2.613,9.2328-5.6184c.3246-.2164.6549-.4383.9793-.66q3.381-2.3052,6.6087-4.8269,1.46-1.1358,2.8861-2.3168,2.169-1.8018,4.2634-3.6944c.8141-.74,1.6223-1.4857,2.4136-2.2428a127.2132,127.2132,0,0,0,21.5228-27.0383c.4953-.8312.9789-1.6737,1.4569-2.5162q2.391-4.2351,4.4517-8.6637c.3925-.8425.774-1.685,1.15-2.5387a125.8857,125.8857,0,0,0,6.4379-18.42c.8708-3.3017,1.6221-6.6545,2.2314-10.0529q.8369-4.6788,1.3264-9.472.3243-3.1932.4894-6.4379.1625-3.2361.1651-6.5177,0-3.2788-.1651-6.5176-.0937-1.725-.2221-3.444c-.08-1.0017-.1649-1.998-.2673-2.9941q-.487-4.79-1.3264-9.472c-.6093-3.3984-1.3606-6.751-2.2314-10.0527a125.8775,125.8775,0,0,0-6.4379-18.42c-.3758-.8539-.7573-1.6964-1.15-2.539q-2.0666-4.4228-4.4517-8.6637c-.478-.8425-.9616-1.6849-1.4569-2.5159a127.1432,127.1432,0,0,0-21.5513-27.0612q-1.1784-1.1271-2.3851-2.22-2.0916-1.8954-4.2634-3.6942-1.4259-1.1784-2.8861-2.3168-3.2276-2.5188-6.6087-4.8272c-.3244-.2218-.6547-.4439-.9793-.66a126.2264,126.2264,0,0,0-17.9874-10.0128c-.1766-.0853-.3587-.1594-.5409-.2447a125.2991,125.2991,0,0,0-18.3861-6.5745q-2.0066-.5466-4.0416-1.0362a127.007,127.007,0,0,0-19.6044-3.0568c-2.1458-.1592-4.3092-.2732-6.4777-.3244-1.0874-.0285-2.18-.04-3.2732-.04s-2.18.0113-3.2675.04c-2.1742.0512-4.3317.1652-6.4776.3244a126.9747,126.9747,0,0,0-19.61,3.0568q-2.0319.4869-4.0412,1.0362a125.2849,125.2849,0,0,0-18.3863,6.5745c-.1823.0853-.3587.1594-.5408.2447a126.17,126.17,0,0,0-17.9822,10.0128c-.33.2164-.6544.4385-.9792.66q-3.3894,2.3055-6.6142,4.8272-1.4517,1.1358-2.88,2.3168-2.1773,1.8015-4.2694,3.6942-1.2212,1.11-2.4082,2.2429a127.4012,127.4012,0,0,0-21.5287,27.0384c-.4953.831-.9805,1.6734-1.4585,2.5159q-2.3821,4.2353-4.4479,8.6637c-.1992.4215-.397.8426-.585,1.2639s-.3845.848-.5724,1.2751a125.3305,125.3305,0,0,0-6.4611,18.42c-.871,3.3017-1.646,6.6543-2.2549,10.0527-.4213,2.3394-.833,4.7018-1.1178,7.0811-.0967.7969-.3221,1.5939-.4018,2.3909-.07.7152-.3685,1.4349-.4433,2.1513-.5548-.3089-1.2593-.6126-1.8494-.9048.12.0571.2335.12.3416.1822A16.5155,16.5155,0,0,0,275.3553,264.9607Z" transform="translate(-22.5895 -149)" fill="#64b7ff"/><path d="M175.2345,516.212c0-2.1119-.0126-4.2123.09-6.2958a128.6709,128.6709,0,0,1,20.5564-63.9977c-3.014.255-6.045.4044-9.0951.4044a129.5774,129.5774,0,0,1-23.4675-2.13l-28.8695-8.9486-.0006,0a134.8772,134.8772,0,0,1-28.6542-17.1871,131.8648,131.8648,0,0,1-9.9626-8.6486q-3.91.9129-7.6958,2.161-.9459.3109-1.8869.6439-4.2205,1.4951-8.259,3.3917c-.5955.2822-1.1833.5689-1.7744.86a94.7259,94.7259,0,0,0-26.1648,19.2865c-.4588.4764-.9005.9616-1.3505,1.4466a99.3668,99.3668,0,0,0-26.04,62.6315c-.08,1.6142-.07,3.2416-.07,4.8778V606.3484c0,2.086,1.9344,1.61,3.9279,1.61H175.2345Z" transform="translate(-22.5895 -149)" fill="#64b7ff"/><path d="M525.537,340.3075c.4953-.8312.9793-1.6737,1.4573-2.5162q2.3823-4.2351,4.4457-8.6637c.3928-.8425.7744-1.685,1.15-2.5387a125.2529,125.2529,0,0,0,6.4437-18.42c.871-3.3017,1.6222-6.6545,2.2316-10.0529q.8369-4.6788,1.32-9.472.3246-3.1932.49-6.4379c.114-2.1574.1649-4.3319.1649-6.5177s.2007-4.36.0811-6.5176c-.0625-1.3264-.01-2.6415-.01-3.9564V265.18c0-.0731-.0167-.1463-.0225-.2194a16.5127,16.5127,0,0,0,1.5-.7995c.1081-.0625.2219-.1251.3417-.1822-.59.2922-1.2947.5959-1.8494.9048-.0749-.7164-.3734-1.4361-.4433-2.1513-.08-.797-.3051-1.594-.4019-2.3909-.2847-2.3793-.6964-4.7417-1.1177-7.0811-.1789-.9984-.399-1.9843-.6048-2.9747a98.4022,98.4022,0,0,1,7.0072-7.4172q.9129-.8733,1.8479-1.72,1.6206-1.4686,3.3034-2.8623,1.1046-.913,2.236-1.7951,2.5006-1.9515,5.12-3.74c.2513-.1719.5072-.344.7587-.5116a97.7822,97.7822,0,0,1,13.9365-7.7578c.1368-.0661.2779-.1236.4191-.19a97.0922,97.0922,0,0,1,14.2454-5.0939q1.5546-.4236,3.1314-.8028a98.3722,98.3722,0,0,1,15.1892-2.3684c1.6626-.1233,3.3388-.2117,5.019-.2513.8425-.0221,1.6892-.0309,2.536-.0309s1.6891.0088,2.5316.0309c1.6846.04,3.3562.128,5.0188.2513a98.3473,98.3473,0,0,1,15.1939,2.3684q1.5744.3772,3.1311.8028a97.0863,97.0863,0,0,1,14.2456,5.0939c.1412.066.2779.1235.4189.19a97.7388,97.7388,0,0,1,13.9325,7.7578c.2558.1676.5071.34.7587.5116q2.6261,1.7862,5.1246,3.74,1.1249.88,2.2317,1.7951,1.687,1.3957,3.3079,2.8623.9462.86,1.8658,1.7377a98.71,98.71,0,0,1,16.68,20.9492c.3837.6438.76,1.2965,1.13,1.9492q1.8456,3.2814,3.4461,6.7126c.1544.3265.3077.6527.4533.9792s.2978.657.4435.9879a97.0927,97.0927,0,0,1,5.006,14.2719c.6748,2.5581,1.2753,5.1556,1.7471,7.7888.3264,1.8125.6454,3.6429.866,5.4864.075.6174.25,1.2349.3114,1.8523.0541.5543.2855,1.1118.3434,1.6669.43-.24.9757-.4746,1.4329-.7011-.0927.0443-.181.0928-.2646.1412a12.7226,12.7226,0,0,1-1.1621.6193c.0045.0567.0175.1136.0175.17v.0265c0,1.0188-.0409,2.0376.0076,3.0654.0926,1.6713-.0628,3.3561-.0628,5.05s-.0395,3.3784-.1278,5.05q-.1259,2.514-.3793,4.988-.377,3.7114-1.0232,7.3388c-.472,2.6331-1.0541,5.2309-1.7289,7.7889a97.0389,97.0389,0,0,1-4.9925,14.2718c-.2909.6615-.5866,1.3142-.8909,1.967q-1.5944,3.4269-3.4445,6.7126c-.37.6528-.7454,1.3055-1.1291,1.95a98.4317,98.4317,0,0,1-15.0349,19.3438q-1.7132,1.7133-3.51,3.3429-1.6212,1.4688-3.3078,2.8624-1.1046.913-2.2317,1.7951-2.5006,1.9515-5.1247,3.74c-.2515.1721-.5028.344-.7586.5115q-3.804,2.547-7.8549,4.7368-2.977,1.6141-6.0776,3.0211c-.141.0661-.2777.1235-.4189.19a97.0759,97.0759,0,0,1-14.2456,5.0942q-1.5543.4233-3.1311.8026a98.3593,98.3593,0,0,1-15.1939,2.3684c-1.6626.1235-3.3342.2117-5.0188.2513-.8425.0221-1.6849.0311-2.5316.0311s-1.6935-.009-2.536-.0311c-1.68-.04-3.3564-.1278-5.019-.2513a98.3842,98.3842,0,0,1-15.1892-2.3684q-1.5743-.377-3.1314-.8026a97.0817,97.0817,0,0,1-14.2454-5.0942c-.1412-.066-.2823-.1234-.4191-.19q-3.4662-1.5745-6.783-3.4047-3.6783-2.0245-7.1535-4.3532c-.2515-.1675-.5074-.3394-.7587-.5115q-2.62-1.7862-5.12-3.74-1.1311-.88-2.236-1.7951-1.6806-1.3959-3.3034-2.8624c-.6307-.5733-1.2569-1.1511-1.87-1.7376a98.5665,98.5665,0,0,1-16.6757-20.9491c-.3838-.644-.7585-1.2967-1.1288-1.95q-1.8525-3.2812-3.4491-6.7126c-.3042-.6528-.6-1.3055-.8908-1.967-1.1582-2.6388-2.191-5.3456-3.1192-8.1013C523.5009,343.6167,524.5438,341.9788,525.537,340.3075Z" transform="translate(-22.5895 -149)" fill="#64b7ff"/><path d="M628.5772,516.212c0-2.1119.0126-4.2123-.09-6.2958a128.6729,128.6729,0,0,0-20.5564-63.9977c3.0139.255,6.0449.4044,9.0951.4044a129.5763,129.5763,0,0,0,23.4674-2.13l28.87-8.9486,0,0a134.8722,134.8722,0,0,0,28.6542-17.1871,131.8466,131.8466,0,0,0,9.9627-8.6486q3.91.9129,7.6957,2.161.946.3109,1.8869.6439,4.2206,1.4951,8.259,3.3917c.5955.2822,1.1833.5689,1.7745.86a94.724,94.724,0,0,1,26.1647,19.2865c.4588.4764.9.9616,1.35,1.4466a99.3669,99.3669,0,0,1,26.0405,62.6315c.0795,1.6142.07,3.2416.07,4.8778V606.3484c0,2.086-1.9344,1.61-3.928,1.61H628.5772Z" transform="translate(-22.5895 -149)" fill="#64b7ff"/><path d="M612.63,509.7316c-2.6923-57.1679-41.7953-104.7979-93.7435-116.8884a174.6285,174.6285,0,0,1-17.2361,14.2088,5.6057,5.6057,0,0,1-3.0171,1.4533h-.0056c-9.13,9.268-18.8416,12.97-29.1449,17.53-2.0946.928-4.1953,2.7638-6.3126,3.5948-5.3338,2.1175-25.291,6.9532-26.6968,7.2492a158.8348,158.8348,0,0,1-64.7728,1.2289l-37.2614-11.55,0,0a174.079,174.079,0,0,1-36.983-22.1828,170.2063,170.2063,0,0,1-12.8585-11.1626q-5.0465,1.1783-9.9327,2.789-1.221.4015-2.4353.8312-5.4474,1.93-10.66,4.3775c-.7685.3642-1.5272.7342-2.29,1.11a122.2614,122.2614,0,0,0-33.77,24.8925c-.5921.6149-1.1622,1.241-1.743,1.8672a128.2484,128.2484,0,0,0-33.61,80.8364c-.1027,2.0835-.09,4.1839-.09,6.2958V647.3971c0,2.6923,2.4966,2.0773,5.07,2.0773H609.0474c2.573,0,3.6421.615,3.6421-2.0773V516.212C612.69,514.1,612.7328,511.815,612.63,509.7316Z" transform="translate(-22.5895 -149)" fill="#64b7ff"/></svg>