<svg xmlns="http://www.w3.org/2000/svg" width="780.2512" height="779.2632" viewBox="0 0 780.2512 779.2632"><circle cx="390.7732" cy="389.7851" r="389.478" fill="#434378" opacity="0.71"/><path d="M628.3543,85.3218C70.8572,61.4,52.5417,574.1711,52.4157,577.8878A387.672,387.672,0,0,1,9.6112,400.2131c0-215.1088,174.3832-389.4763,389.4763-389.4763A387.8024,387.8024,0,0,1,628.3543,85.3218Z" transform="translate(-9.6112 -10.7368)" opacity="0.2"/><path d="M320.5527,359.5161c-.3339-.56-.66-1.1284-.9826-1.6964q-1.6061-2.8554-2.9973-5.8412c-.2648-.568-.5221-1.136-.7752-1.7116a84.4418,84.4418,0,0,1-4.3444-12.4191c-.5872-2.226-1.0937-4.4865-1.5045-6.7777q-.5643-3.1545-.89-6.3861-.2188-2.153-.33-4.3405c-.0768-1.4545-.1112-2.9206-.1112-4.3943s-.1352-2.94-.0546-4.3942c.0421-.8943.0067-1.7809.0067-2.6674v-.023c0-.0493.0112-.0987.0152-.148a11.1138,11.1138,0,0,1-1.0113-.539c-.0729-.0421-.15-.0843-.23-.1229.3979.1971.8728.4018,1.2469.61.05-.483.2517-.9682.2988-1.45.0538-.5373.2057-1.0747.271-1.612.1919-1.6041.47-3.1969.7536-4.7742.1206-.673.269-1.3378.4077-2.0055a66.31,66.31,0,0,0-4.7243-5.0007q-.6155-.5889-1.2459-1.16-1.0926-.99-2.2271-1.93-.7447-.6156-1.5076-1.21-1.686-1.3158-3.4522-2.5216c-.1694-.1159-.342-.2319-.5115-.3449a65.93,65.93,0,0,0-9.3962-5.23c-.0922-.0445-.1873-.0833-.2825-.1278a65.4526,65.4526,0,0,0-9.6044-3.4344q-1.0482-.2854-2.1112-.5412a66.3287,66.3287,0,0,0-10.2407-1.5968c-1.121-.0832-2.251-.1427-3.3838-.1695-.568-.0149-1.1389-.0208-1.71-.0208s-1.1389.0059-1.7069.0208c-1.1358.0268-2.2627.0863-3.3837.1695a66.3117,66.3117,0,0,0-10.2438,1.5968q-1.0616.2542-2.1111.5412a65.4485,65.4485,0,0,0-9.6044,3.4344c-.0953.0445-.1874.0833-.2825.1278a65.9,65.9,0,0,0-9.3934,5.23c-.1725.113-.3419.229-.5115.3449q-1.7706,1.2044-3.4551,2.5216-.7584.5933-1.5046,1.21-1.1374.9411-2.23,1.93-.6378.58-1.2579,1.1716a66.5526,66.5526,0,0,0-11.246,14.1241c-.2588.4341-.5121.8742-.7619,1.3142q-1.2444,2.2124-2.3234,4.5257c-.1041.22-.2075.44-.3056.66s-.2008.443-.299.666a65.456,65.456,0,0,0-3.3751,9.6223c-.455,1.7247-.86,3.476-1.1779,5.2512-.22,1.2221-.4352,2.4561-.5839,3.699-.05.4163-.1683.8326-.21,1.2489-.0365.3737-.1925.75-.2316,1.1238-.29-.1615-.6578-.32-.966-.4727.0625.03.122.0626.1784.0952a8.5871,8.5871,0,0,0,.7835.4176c-.0031.0382-.0118.0765-.0118.1147v.0178c0,.6869.0275,1.3738-.0051,2.0667-.0625,1.1268.0423,2.2628.0423,3.4046s.0266,2.2777.0861,3.4047q.0849,1.6948.2558,3.3629.2541,2.5023.69,4.9479c.3182,1.7753.7107,3.5267,1.1656,5.2514a65.4212,65.4212,0,0,0,3.3661,9.6221c.1961.446.3954.8861.6006,1.3262q1.0749,2.31,2.3223,4.5257c.25.44.5026.88.7613,1.3143A66.362,66.362,0,0,0,213.13,388.51q1.1551,1.1551,2.3669,2.2538,1.0929.99,2.23,1.93.7447.6155,1.5046,1.21,1.686,1.3156,3.4551,2.5214c.17.116.339.2319.5115.3449q2.5647,1.7172,5.2959,3.1936,2.007,1.0883,4.0975,2.0368c.0951.0446.1872.0833.2825.1278a65.4488,65.4488,0,0,0,9.6044,3.4345q1.048.2854,2.1111.5412a66.3237,66.3237,0,0,0,10.2438,1.5968c1.121.0832,2.2479.1427,3.3837.1694.568.0149,1.136.0209,1.7069.0209s1.1418-.006,1.71-.0209c1.1328-.0267,2.2628-.0862,3.3838-.1694a66.3408,66.3408,0,0,0,10.2407-1.5968q1.0614-.2542,2.1112-.5412a65.453,65.453,0,0,0,9.6044-3.4345c.0952-.0445.19-.0832.2825-.1278q2.337-1.0616,4.5732-2.2955,2.48-1.3648,4.823-2.9349c.17-.113.3421-.2289.5115-.3449q1.7661-1.2042,3.4522-2.5214.7626-.5934,1.5076-1.21,1.133-.9411,2.2271-1.93c.4253-.3865.8475-.776,1.2608-1.1715a66.45,66.45,0,0,0,11.2429-14.1241c.2587-.4342.5114-.8742.7611-1.3143q1.2489-2.2122,2.3254-4.5257c.2051-.44.4044-.88.6006-1.3262.7808-1.7791,1.4772-3.604,2.1029-5.4619C321.9254,361.7473,321.2223,360.6429,320.5527,359.5161Z" transform="translate(-9.6112 -10.7368)" fill="#fff"/><path d="M318.5844,308.7166c-.004.0493-.0152.0987-.0152.148v.023c0,.8865.0354,1.7731-.0067,2.6674-.0806,1.4544.0546,2.9205.0546,4.3942s.0344,2.94.1112,4.3943q.11,2.1876.33,4.3405.3281,3.2295.89,6.3861c.4108,2.2912.9173,4.5517,1.5045,6.7777a84.4418,84.4418,0,0,0,4.3444,12.4191c.2531.5756.51,1.1436.7752,1.7116q1.3874,2.9822,2.9973,5.8412c.3224.568.6487,1.136.9826,1.6964a85.6479,85.6479,0,0,0,13.083,16.8326q1.4908,1.4909,3.0549,2.909,1.4106,1.278,2.8783,2.4908.9613.7944,1.942,1.562,2.1759,1.6982,4.4594,3.2544c.2189.15.4376.2993.66.4452q3.31,2.2162,6.8353,4.1218,2.59,1.4046,5.2885,2.6289c.1228.0575.2417.1075.3646.165a84.4854,84.4854,0,0,0,12.3962,4.4327q1.3526.3684,2.7246.6984a85.57,85.57,0,0,0,13.2215,2.061c1.4467.1074,2.9013.1842,4.3672.2187q1.1.0288,2.203.027,1.1053,0,2.2068-.027c1.462-.0345,2.9206-.1113,4.3674-.2187a85.5912,85.5912,0,0,0,13.2174-2.061q1.37-.3279,2.7249-.6984a84.4954,84.4954,0,0,0,12.396-4.4327c.1229-.0575.2457-.1075.3647-.165q3.0162-1.37,5.9024-2.9627,3.2009-1.7617,6.2249-3.788c.2189-.1459.4415-.2955.66-.4452q2.2794-1.5543,4.4556-3.2544.9843-.7657,1.9458-1.562,1.4623-1.2147,2.8744-2.4908c.5489-.4989,1.0938-1.0017,1.6273-1.5121a85.7689,85.7689,0,0,0,14.5109-18.23c.3339-.56.66-1.1284.9823-1.6964q1.6119-2.8554,3.0013-5.8412c.2647-.568.5219-1.136.7752-1.7116a84.86,84.86,0,0,0,4.3405-12.4191c.5871-2.226,1.0937-4.4865,1.5044-6.7777q.5643-3.1545.8943-6.3861.2187-2.153.33-4.3405.1095-2.1818.1113-4.3943,0-2.2106-.1113-4.3942-.0632-1.163-.15-2.322c-.0537-.6753-.1113-1.3471-.18-2.0186q-.3284-3.23-.8943-6.3862c-.4107-2.2912-.9173-4.5515-1.5044-6.7775a84.86,84.86,0,0,0-4.3405-12.4191c-.2533-.5758-.51-1.1437-.7752-1.7118q-1.3932-2.9819-3.0013-5.8412c-.3224-.568-.6484-1.136-.9823-1.6962a85.7181,85.7181,0,0,0-14.53-18.2449q-.7945-.76-1.6081-1.4968-1.41-1.2779-2.8744-2.4907-.9613-.7944-1.9458-1.562-2.176-1.6981-4.4556-3.2546c-.2188-.15-.4414-.2992-.66-.4451a85.087,85.087,0,0,0-12.1273-6.7507c-.119-.0575-.2418-.1075-.3647-.165a84.4719,84.4719,0,0,0-12.396-4.4326q-1.3529-.3685-2.7249-.6986a85.6153,85.6153,0,0,0-13.2174-2.0609c-1.4468-.1073-2.9054-.1842-4.3674-.2187-.7331-.0193-1.47-.0269-2.2068-.0269s-1.47.0076-2.203.0269c-1.4659.0345-2.9205.1114-4.3672.2187a85.594,85.594,0,0,0-13.2215,2.0609q-1.37.3282-2.7246.6986a84.4619,84.4619,0,0,0-12.3962,4.4326c-.1229.0575-.2418.1075-.3646.165a85.0545,85.0545,0,0,0-12.1238,6.7507c-.2225.1459-.4412.2956-.66.4451q-2.2851,1.5546-4.4593,3.2546-.9787.7657-1.942,1.562-1.4679,1.2146-2.8785,2.4907-.8234.7483-1.6236,1.5121a85.9006,85.9006,0,0,0-14.5149,18.23c-.3339.56-.661,1.1282-.9832,1.6962q-1.6062,2.8554-2.9989,5.8412c-.1343.2841-.2677.5681-.3944.8521s-.2592.5717-.3859.86a84.4958,84.4958,0,0,0-4.3562,12.4191c-.5872,2.226-1.11,4.4863-1.52,6.7775-.2841,1.5773-.5617,3.17-.7536,4.7742-.0653.5373-.2172,1.0747-.271,1.612-.0471.4822-.2484.9674-.2988,1.45-.3741-.2083-.849-.413-1.2469-.61.0807.0386.1574.0808.23.1229A11.1138,11.1138,0,0,0,318.5844,308.7166Z" transform="translate(-9.6112 -10.7368)" fill="#fff"/><path d="M251.082,478.1125c0-1.4238-.0085-2.84.0608-4.2447A86.7507,86.7507,0,0,1,265.0021,430.72c-2.0321.1719-4.0756.2727-6.132.2727a87.3632,87.3632,0,0,1-15.822-1.4362l-19.4641-6.0332,0,0a90.9351,90.9351,0,0,1-19.3189-11.5877,88.9266,88.9266,0,0,1-6.7169-5.831q-2.6361.6155-5.1885,1.457c-.4252.14-.85.2854-1.2722.4341q-2.8455,1.008-5.5683,2.2867c-.4015.19-.7978.3835-1.1964.58a63.8643,63.8643,0,0,0-17.64,13.0031c-.3093.3212-.6071.6483-.9105.9753a66.9939,66.9939,0,0,0-17.5567,42.2267c-.0536,1.0883-.047,2.1855-.047,3.2887v68.5273c0,1.4065,1.3042,1.0852,2.6482,1.0852H251.082Z" transform="translate(-9.6112 -10.7368)" fill="#fff"/><path d="M487.2591,359.5161c.3339-.56.66-1.1284.9825-1.6964q1.6062-2.8554,2.9973-5.8412c.2649-.568.5221-1.136.7752-1.7116a84.43,84.43,0,0,0,4.3444-12.4191c.5873-2.226,1.0938-4.4865,1.5046-6.7777q.5641-3.1545.89-6.3861.2188-2.153.33-4.3405c.0769-1.4545.1112-2.9206.1112-4.3943s.1353-2.94.0547-4.3942c-.0422-.8943-.0067-1.7809-.0067-2.6674v-.023c0-.0493-.0112-.0987-.0152-.148a11.1244,11.1244,0,0,0,1.0112-.539c.0729-.0421.15-.0843.23-.1229-.3979.1971-.8729.4018-1.2469.61-.05-.483-.2518-.9682-.2989-1.45-.0537-.5373-.2057-1.0747-.2709-1.612-.192-1.6041-.47-3.1969-.7536-4.7742-.1206-.673-.269-1.3378-.4077-2.0055a66.31,66.31,0,0,1,4.7243-5.0007q.6155-.5889,1.2458-1.16,1.0928-.99,2.2272-1.93.7447-.6156,1.5075-1.21,1.686-1.3158,3.4523-2.5216c.1694-.1159.3419-.2319.5115-.3449a65.9288,65.9288,0,0,1,9.3961-5.23c.0922-.0445.1873-.0833.2825-.1278a65.4568,65.4568,0,0,1,9.6044-3.4344q1.0482-.2854,2.1112-.5412a66.3325,66.3325,0,0,1,10.2407-1.5968c1.121-.0832,2.2511-.1427,3.3839-.1695.568-.0149,1.1388-.0208,1.71-.0208s1.1388.0059,1.7068.0208c1.1358.0268,2.2628.0863,3.3837.1695a66.3129,66.3129,0,0,1,10.2439,1.5968q1.0614.2542,2.111.5412a65.45,65.45,0,0,1,9.6045,3.4344c.0952.0445.1874.0833.2825.1278a65.8984,65.8984,0,0,1,9.3933,5.23c.1725.113.342.229.5116.3449q1.77,1.2044,3.4551,2.5216.7582.5933,1.5046,1.21,1.1373.9411,2.23,1.93.6378.58,1.258,1.1716a66.5557,66.5557,0,0,1,11.246,14.1241c.2587.4341.5121.8742.7618,1.3142q1.2444,2.2124,2.3235,4.5257c.1041.22.2074.44.3056.66s.2008.443.299.666a65.4676,65.4676,0,0,1,3.3751,9.6223c.4549,1.7247.86,3.476,1.1779,5.2512.22,1.2221.4351,2.4561.5839,3.699.05.4163.1682.8326.21,1.2489.0365.3737.1925.75.2315,1.1238.29-.1615.6578-.32.9661-.4727-.0625.03-.122.0626-.1784.0952a8.6,8.6,0,0,1-.7835.4176c.003.0382.0118.0765.0118.1147v.0178c0,.6869-.0276,1.3738.0051,2.0667.0624,1.1268-.0423,2.2628-.0423,3.4046s-.0267,2.2777-.0862,3.4047q-.0849,1.6948-.2557,3.3629-.2543,2.5023-.69,4.9479c-.3183,1.7753-.7107,3.5267-1.1657,5.2514a65.4209,65.4209,0,0,1-3.366,9.6221c-.1961.446-.3955.8861-.6007,1.3262q-1.0749,2.31-2.3222,4.5257c-.25.44-.5026.88-.7613,1.3143A66.3625,66.3625,0,0,1,594.6821,388.51q-1.155,1.1551-2.3668,2.2538-1.0929.99-2.23,1.93-.7447.6155-1.5046,1.21-1.686,1.3156-3.4552,2.5214c-.1695.116-.339.2319-.5115.3449q-2.5645,1.7172-5.2958,3.1936-2.0071,1.0883-4.0975,2.0368c-.0951.0446-.1873.0833-.2825.1278a65.45,65.45,0,0,1-9.6045,3.4345q-1.0479.2854-2.111.5412a66.325,66.325,0,0,1-10.2439,1.5968c-1.1209.0832-2.2479.1427-3.3837.1694-.568.0149-1.136.0209-1.7068.0209s-1.1418-.006-1.71-.0209c-1.1328-.0267-2.2629-.0862-3.3839-.1694a66.3445,66.3445,0,0,1-10.2407-1.5968q-1.0614-.2542-2.1112-.5412a65.4571,65.4571,0,0,1-9.6044-3.4345c-.0952-.0445-.19-.0832-.2825-.1278q-2.337-1.0616-4.5732-2.2955-2.48-1.3648-4.8229-2.9349c-.17-.113-.3421-.2289-.5115-.3449q-1.7663-1.2042-3.4523-2.5214-.7626-.5934-1.5075-1.21-1.1331-.9411-2.2272-1.93c-.4252-.3865-.8474-.776-1.2607-1.1715a66.4536,66.4536,0,0,1-11.243-14.1241c-.2587-.4342-.5113-.8742-.761-1.3143q-1.2489-2.2122-2.3254-4.5257c-.2051-.44-.4044-.88-.6006-1.3262-.7808-1.7791-1.4772-3.604-2.103-5.4619C485.8863,361.7473,486.59,360.6429,487.2591,359.5161Z" transform="translate(-9.6112 -10.7368)" fill="#fff"/><path d="M556.73,478.1125c0-1.4238.0085-2.84-.0607-4.2447A86.7517,86.7517,0,0,0,542.81,430.72c2.032.1719,4.0755.2727,6.132.2727a87.364,87.364,0,0,0,15.822-1.4362l19.4641-6.0332,0,0a90.9327,90.9327,0,0,0,19.3189-11.5877,88.928,88.928,0,0,0,6.717-5.831q2.6359.6155,5.1885,1.457c.4252.14.85.2854,1.2722.4341q2.8455,1.008,5.5683,2.2867c.4014.19.7977.3835,1.1963.58A63.8643,63.8643,0,0,1,641.13,423.8652c.3093.3212.6071.6483.91.9753a66.9933,66.9933,0,0,1,17.5567,42.2267c.0537,1.0883.0471,2.1855.0471,3.2887v68.5273c0,1.4065-1.3042,1.0852-2.6483,1.0852H556.73Z" transform="translate(-9.6112 -10.7368)" fill="#fff"/><path d="M545.9781,473.7433c-1.8152-38.543-28.1788-70.6556-63.2027-78.8071a117.7363,117.7363,0,0,1-11.6207,9.58,3.78,3.78,0,0,1-2.0342.98h-.0038c-6.1558,6.2486-12.7031,8.7445-19.65,11.8186-1.4122.6256-2.8285,1.8633-4.2561,2.4236-3.596,1.4276-17.0514,4.6879-17.9992,4.8875a107.0887,107.0887,0,0,1-43.67.8285l-25.1219-7.7868,0,0a117.3637,117.3637,0,0,1-24.9343-14.9558,114.7228,114.7228,0,0,1-8.6693-7.526q-3.4024.7944-6.6968,1.8805c-.5488.18-1.0968.3684-1.6418.56q-3.6728,1.301-7.1869,2.9514c-.5181.2455-1.03.495-1.5441.7483a82.43,82.43,0,0,0-22.7681,16.7827c-.3992.4146-.7836.8367-1.1751,1.2589a86.4658,86.4658,0,0,0-22.66,54.5006c-.0693,1.4047-.0608,2.8209-.0608,4.2447v88.4462c0,1.8151,1.6833,1.4,3.418,1.4H543.5625c1.7347,0,2.4556.4146,2.4556-1.4V478.1125C546.0181,476.6887,546.0472,475.148,545.9781,473.7433Z" transform="translate(-9.6112 -10.7368)" fill="#fff"/></svg>