<svg xmlns="http://www.w3.org/2000/svg" width="780.2512" height="779.2632" viewBox="0 0 780.2512 779.2632"><circle cx="390.7732" cy="389.7851" r="389.478" fill="#434378" opacity="0.71"/><path d="M628.3543,85.3218C70.8572,61.4,52.5417,574.1711,52.4157,577.8878A387.672,387.672,0,0,1,9.6112,400.2131c0-215.1088,174.3832-389.4763,389.4763-389.4763A387.8024,387.8024,0,0,1,628.3543,85.3218Z" transform="translate(-9.6112 -10.7368)" opacity="0.2"/><path d="M513.5541,487.2032l-25.35-3.7562a122.7172,122.7172,0,0,0-10.6018-42.6852l.1522-.4593,20.6135-15.4653a10.4342,10.4342,0,0,0,2.1525-14.5288l-26.55-35.8442a10.3165,10.3165,0,0,0-14.43-2.1629l-22.3233,14.945c-11.3144-9.4116-17.1189-15.6887-38.956-22.3856l.02-.1149,5.8-24.9975a9.4974,9.4974,0,0,0-8.3483-11.1072l-43.5822-6.4442c-5.6364-.8351-8.0784,2.9466-8.9137,8.5833l-3.6287,25.3733a125.0233,125.0233,0,0,0-43.0835,10.5419l-.6568-.1809-15.5639-20.6254a10.4934,10.4934,0,0,0-14.5765-2.16L229.8547,370.277a10.3171,10.3171,0,0,0-2.175,14.4251l15.1066,21.5156c-9.412,11.3138-16.1777,20.03-22.2238,38.1461l-.1172-.0205L195.14,440.3088c-5.6353-.8349-9.22,1.8176-10.0553,7.4543l-6.5211,44.024c-.835,5.6357,1.7034,10.0762,7.3386,10.9112l25.3545,3.7388c1.0736,16.4878,4.9841,29.0439,10.675,42.1819l-.1152.2051-20.5941,15.339a10.3582,10.3582,0,0,0-2.1431,14.466l26.5566,35.8143a10.3134,10.3134,0,0,0,14.4292,2.1463l21.3682-15.1581a129.439,129.439,0,0,0,37.999,22.1722l-.02.117-3.4238,25.4123c-.835,5.6334.9176,11.05,6.5537,11.8849l44.1769,6.5479a11.09,11.09,0,0,0,12.1928-9.1018l1.3122-25.7792c16.4873-1.0733,30.4711-4.7217,39.2649-11.1706l-.0143.0819,17.6988,21.0071c3.3937,4.5763,11.0694,5.7482,15.6438,2.35L469.22,618.503a10.3088,10.3088,0,0,0,2.4411-14.3771l-14.8444-22.1526c9.4128-11.3141,15.71-16.958,22.4881-38.7809l.1134.02,25.1055,5.19c5.6353.835,12.1024-1.8119,12.9375-7.4486l6.4706-43.7338C524.7674,491.583,519.1894,488.038,513.5541,487.2032ZM315.5777,549.0093c-.5734-.363-1.1428-.7317-1.7032-1.1117q-2.5779-1.749-4.9623-3.7305-1.1911-.9894-2.3313-2.0333t-2.2271-2.139q-.5428-.5474-1.0731-1.1079a64.5165,64.5165,0,0,1-10.3139-14.4585q-.8268-1.5816-1.5663-3.2108a64.2052,64.2052,0,0,1,22.7531-79.7953q1.9191-1.2866,3.9291-2.4348.6695-.3824,1.3481-.749,1.3582-.7327,2.7519-1.4013a64.1269,64.1269,0,0,1,8.6516-3.401q1.4871-.4635,3.001-.8548a64.3507,64.3507,0,0,1,53.3287,9.9009q1.2645.904,2.481,1.8659,1.8249,1.4421,3.5353,3.0086,1.14,1.0431,2.2271,2.1391.5428.5473,1.0731,1.1077,1.06,1.12,2.0641,2.2892,1.5066,1.7526,2.8836,3.6094.9177,1.2369,1.7756,2.5165a64.4439,64.4439,0,0,1,3.9005,6.644q.7012,1.3758,1.3361,2.7868t1.2028,2.8537q.8507,2.1636,1.5467,4.3955a64.4548,64.4548,0,0,1-2.1676,44.0256q-.6166,1.4638-1.3018,2.8859-1.0271,2.1341-2.2018,4.171-.7815,1.3572-1.6263,2.67c-.3748.5826-.762,1.1557-1.1546,1.7245q-1.18,1.7087-2.46,3.3344-.9616,1.2162-1.979,2.3822c-.5389.6184-1.0921,1.2224-1.654,1.8183-.4974.5282-1,1.0509-1.5147,1.5616q-.5481.5433-1.1079,1.0734-1.1208,1.06-2.2888,2.0642-.5851.5019-1.181.99-1.1915.9759-2.4288,1.8933-.6183.459-1.248.903-2.5155,1.776-5.1974,3.3074-.6689.3823-1.3481.749-1.3581.7332-2.7517,1.4013t-2.8209,1.27q-.7134.3012-1.4347.5848-1.4432.5671-2.9158,1.066a64.3364,64.3364,0,0,1-52.9531-5.4216Q316.505,549.5959,315.5777,549.0093Z" transform="translate(-9.6112 -10.7368)" fill="#fff"/><path d="M593.5621,226.6575l-14.9188,1.8585a71.9925,71.9925,0,0,0-12.6967-22.4618l.0138-.2836,9.2225-11.9791a6.1211,6.1211,0,0,0-1.0654-8.55l-20.6365-16.09a6.0523,6.0523,0,0,0-8.4962,1.044l-10.27,11.9536c-7.8735-3.5427-12.14-6.179-25.5351-6.5346l-.0068-.068-.6477-15.04a5.5719,5.5719,0,0,0-6.4634-4.9669l-25.6461,3.2028c-3.3171.4132-4.1034,2.9343-3.69,6.2515l1.9341,14.9118A73.3473,73.3473,0,0,0,451.9627,192.63l-.4.001-12.0367-9.2137a6.156,6.156,0,0,0-8.5784,1.0687l-16.1068,20.64a6.0528,6.0528,0,0,0,1.0362,8.4953l11.9182,9.7886c-3.5429,7.8732-5.9983,13.8622-6.57,25.0519l-.07.0068-14.9373,1.6941c-3.3163.4132-4.926,2.4755-4.5128,5.7928l3.2286,25.908c.4133,3.3166,2.5455,5.4279,5.8618,5.0146l14.9184-1.8689a70.3748,70.3748,0,0,0,12.6592,22.1661l-.033.1338L429.11,319.2137a6.0765,6.0765,0,0,0,1.0609,8.5132l20.6357,16.0724a6.05,6.05,0,0,0,8.493-1.0532l9.6972-11.924a75.9343,75.9343,0,0,0,24.9607,6.5641l.0068.07,2.0561,14.9015c.4128,3.3154,2.2542,6.1016,5.571,5.6884l25.9986-3.2374a6.5056,6.5056,0,0,0,5.4622-7.06l-3.3072-14.7773c9.15-3.1961,16.4816-7.4547,20.4394-12.481l.0047.0485,13.3034,9.0941a6.9574,6.9574,0,0,0,9.2115-1.1285l16.422-20.6685a6.0476,6.0476,0,0,0-.8783-8.51l-11.87-10.19c3.5433-7.8734,6.2161-12.0525,6.62-25.4522l.0673-.0066,15.0056-1.01c3.3163-.4133,6.5561-2.925,6.1427-6.2423l-3.2116-25.736C600.5881,227.372,596.8785,226.2444,593.5621,226.6575Zm-102.1951,66.03c-.3811-.1153-.761-.2342-1.1374-.3609q-1.7317-.5838-3.3908-1.3292-.8286-.372-1.637-.783t-1.5949-.8593q-.3926-.2241-.7805-.4576a37.8548,37.8548,0,0,1-8.1007-6.5526q-.7158-.7641-1.39-1.5688a37.6655,37.6655,0,0,1,.328-48.6765q.8826-1.0289,1.8383-1.9933.3184-.3216.6445-.6352.6523-.6276,1.3353-1.2243a37.6271,37.6271,0,0,1,4.3559-3.2812q.7677-.4956,1.562-.9545a37.7511,37.7511,0,0,1,31.6982-2.78q.8568.3123,1.6955.6649,1.2579.5285,2.4707,1.1452.8082.4109,1.5947.8594.3931.224.7807.4575.7754.4668,1.5263.97,1.1266.7541,2.1968,1.5872.7129.5551,1.3988,1.1435a37.8092,37.8092,0,0,1,3.2481,3.1429q.6128.6673,1.1931,1.3652t1.1281,1.4242q.8207,1.0891,1.5646,2.2416a37.8126,37.8126,0,0,1,5.69,25.225q-.1186.9244-.2825,1.8358-.2454,1.3675-.59,2.7033-.2286.89-.5,1.7646c-.12.388-.2491.7729-.3817,1.1561q-.3985,1.1511-.8667,2.2711-.3525.8384-.7444,1.6572c-.2074.4342-.4252.8624-.6492,1.2876-.1982.3765-.4.751-.611,1.12q-.2244.3933-.4577.7808-.4668.7747-.9694,1.5262-.2518.3756-.512.7449-.52.7389-1.0755,1.4517-.2773.3567-.5635.7065-1.143,1.3989-2.4183,2.6857-.318.3213-.6443.635-.6526.6279-1.3353,1.2244t-1.395,1.1605q-.356.2823-.7192.556-.7268.5473-1.4807,1.06a37.7427,37.7427,0,0,1-30.7824,5.2524Q491.9835,292.8733,491.367,292.6872Z" transform="translate(-9.6112 -10.7368)" fill="#fff"/></svg>