<svg xmlns="http://www.w3.org/2000/svg" width="72.695" height="77.725" viewBox="0 0 72.695 77.725">
  <path id="gears_icon" data-name="gears icon" d="M9665.293,12838.864a30.84,30.84,0,0,0-.463-5.328l9.3-5.691-9.17-16.828-9.3,5.691a27.1,27.1,0,0,0-8.705-5.33V12800h-18.338v11.377a27.083,27.083,0,0,0-8.707,5.33l-9.3-5.691-9.168,16.828,9.3,5.691a31.068,31.068,0,0,0,0,10.652l-9.3,5.691,9.168,16.828,9.3-5.693a27.059,27.059,0,0,0,8.707,5.334v11.377h18.338v-11.377a27.071,27.071,0,0,0,8.705-5.334l9.3,5.7,9.17-16.83-9.3-5.689A30.851,30.851,0,0,0,9665.293,12838.864Zm-27.508,14.572c-7.6,0-13.756-6.525-13.756-14.572s6.16-14.576,13.756-14.576,13.752,6.525,13.752,14.576S9645.381,12853.437,9637.785,12853.437Z" transform="translate(-9601.436 -12800.001)" fill="#fbd8a1"/>
</svg>
