<svg xmlns="http://www.w3.org/2000/svg" width="780.2512" height="779.2632" viewBox="0 0 780.2512 779.2632"><circle cx="390.7732" cy="389.7851" r="389.478" fill="#434378" opacity="0.71"/><path d="M628.3543,85.3218C70.8572,61.4,52.5417,574.1711,52.4157,577.8878A387.672,387.672,0,0,1,9.6112,400.2131c0-215.1088,174.3832-389.4763,389.4763-389.4763A387.8024,387.8024,0,0,1,628.3543,85.3218Z" transform="translate(-9.6112 -10.7368)" opacity="0.2"/><polygon points="634.595 410.604 573.325 349.358 573.325 227.414 512.246 227.414 512.246 288.255 390.278 166.263 145.96 410.604 207.684 410.604 206.849 411.368 206.849 593.819 267.928 593.819 267.928 380.256 390.278 257.906 512.246 379.922 512.246 593.819 573.325 593.819 573.325 411.368 573.325 410.604 634.595 410.604" fill="#fff"/><path d="M399.8889,421.3175A61.2589,61.2589,0,0,0,338.81,482.3968V604.5556H460.9683V482.3968A61.2436,61.2436,0,0,0,399.8889,421.3175Z" transform="translate(-9.6112 -10.7368)" fill="#fff"/></svg>