<svg id="Icon_awesome-key" data-name="Icon awesome-key" xmlns="http://www.w3.org/2000/svg" width="30.316" height="30.316" viewBox="0 0 30.316 30.316">
  <path id="Icon_awesome-key-2" data-name="Icon awesome-key" d="M30.316,10.421A10.427,10.427,0,0,1,17.951,20.661l-1.422,1.6a1.421,1.421,0,0,1-1.062.477h-2.2v2.368a1.421,1.421,0,0,1-1.421,1.421H9.474V28.9a1.421,1.421,0,0,1-1.421,1.421H1.421A1.421,1.421,0,0,1,0,28.9V24.273a1.421,1.421,0,0,1,.416-1L10,13.688a10.422,10.422,0,1,1,20.32-3.267ZM19.9,7.579a2.842,2.842,0,1,0,2.842-2.842A2.842,2.842,0,0,0,19.9,7.579Z" fill="#64b7ff"/>
</svg>
