<svg xmlns="http://www.w3.org/2000/svg" width="743.1116" height="727.1122" viewBox="0 0 743.1116 727.1122"><path d="M240.0057,431.4949c0-59.5569,40.6741-107.4925,72.63-142.356s68.2734-98.776,68.2734-137.9965S363.4777,56.7234,407.055,32.0288c43.5789-24.6948,122.02,7.2628,127.83,100.23s-7.2629,126.3767-21.79,146.713c-14.5257,20.3365,0,20.3365,15.98,20.3365H691.7659c26.1469,0,72.63,18.8841,72.63,69.7243,0,33.41-20.3365,55.2-20.3365,55.2s29.0517,18.8826,29.0517,69.7243-40.6728,61.0091-40.6728,61.0091,24.6947,65.3675-40.6727,101.682c7.2628,37.7682-15.9782,94.42-72.63,94.42h-257.11c-74.0826,0-123.4719-29.0529-123.4719-69.7257S240.0057,467.8094,240.0057,431.4949Z" transform="translate(-29.9997 -24)" fill="#64b7ff"/><path d="M20.2859,302.9512H171.29a21.9066,21.9066,0,0,1,21.9066,21.9066V705.2056A21.9066,21.9066,0,0,1,171.29,727.1122H20.2859A20.2859,20.2859,0,0,1,0,706.8263V323.2372a20.2859,20.2859,0,0,1,20.2859-20.2859Z" fill="#6a66d9"/></svg>