<svg xmlns="http://www.w3.org/2000/svg" width="740" height="740" viewBox="0 0 740 740"><path d="M404,28C199.6547,28,34,193.6546,34,398S199.6547,768,404,768,774,602.3453,774,398,608.3453,28,404,28Zm0,724C208.4912,752,50,593.5088,50,398S208.4912,44,404,44,758,202.4912,758,398,599.5088,752,404,752Z" transform="translate(-34 -28)" fill="#fff" opacity="0.7"/><circle cx="370" cy="370" r="354" fill="#fff" opacity="0.19"/><path d="M297.4468,395.8719c0-38.3807,26.2119-69.2722,46.8057-91.7395s43.9979-63.6549,43.9979-88.93S377.0168,154.3552,405.1,138.441s78.634,4.68,82.3787,64.5917-4.68,81.4418-14.0424,94.5473,0,13.1056,10.2977,13.1056H588.5779c16.85,0,46.8057,12.17,46.8057,44.9329a55.9918,55.9918,0,0,1-13.1056,35.573S641,403.36,641,436.1244s-26.2111,39.3166-26.2111,39.3166,15.9143,42.1253-26.211,65.5277c4.6805,24.3392-10.2969,60.848-46.8057,60.848H376.0808c-47.7416,0-79.57-18.7228-79.57-44.9339S297.4468,419.2743,297.4468,395.8719Z" transform="translate(-34 -28)" fill="#fff"/><path d="M148.397,300.5h82.31a21.9066,21.9066,0,0,1,21.9066,21.9066V551.9386a21.9066,21.9066,0,0,1-21.9066,21.9066h-82.31a20.2859,20.2859,0,0,1-20.2859-20.2859V320.786A20.2859,20.2859,0,0,1,148.397,300.5Z" fill="#fff"/></svg>