<svg id="Layer_13" data-name="Layer 13" xmlns="http://www.w3.org/2000/svg" width="578.8741" height="596" viewBox="0 0 578.8741 596"><g id="Log_Out" data-name="Log Out"><path d="M123.5629,333.2073H360.3362V266.4141L510.6208,400,360.3362,533.5868V466.7936H123.5629Z" transform="translate(-123.5629 -102)" fill="#fbd8a1"/><path d="M191.1062,187.6953c14.6637,18.7762,52.3419,53.0291,57.3049,56.5887l7.4213-5.6747c32.6319-26.653,73.0569-55.0852,140.3811-55.0852,128.7644,0,229.6293,94.8962,229.6293,216.0767,0,122.0711-100.8649,217.7337-229.6293,217.7337-80.2585,0-122.4371-43.95-148.3038-70.85-14.7374,14.5042-43.8524,43.6192-56.6787,57.9983C227.65,649.6925,301.27,698,398.6579,698c167.4991,0,303.7792-133.88,303.7792-298.3992C702.4371,235.5109,566.157,102,398.6579,102,279.1,102,213.8388,161.7793,191.1062,187.6953ZM398.6579,102C279.1,102,213.8388,161.7793,191.1062,187.6953c18.4326,18.4326,52.3419,53.0291,57.3049,56.5887M398.6579,102C279.1,102,213.8388,161.7793,191.1062,187.6953c47.5476,47.5476,14.5091,13.7929,57.3049,56.5887" transform="translate(-123.5629 -102)" fill="#fbd8a1"/></g></svg>