<svg xmlns="http://www.w3.org/2000/svg" width="780.2512" height="779.2632" viewBox="0 0 780.2512 779.2632"><circle cx="390.7732" cy="389.7851" r="389.478" fill="#434378" opacity="0.71"/><path d="M628.3543,85.3218C70.8572,61.4,52.5417,574.1711,52.4157,577.8878A387.672,387.672,0,0,1,9.6112,400.2131c0-215.1088,174.3832-389.4763,389.4763-389.4763A387.8024,387.8024,0,0,1,628.3543,85.3218Z" transform="translate(-9.6112 -10.7368)" opacity="0.2"/><path d="M211,349.6154H375.4275V303.2308L479.7929,396,375.4275,488.7693V442.3847H211Z" transform="translate(-9.6112 -10.7368)" fill="#fff"/><path d="M257.9055,248.5644c10.1832,13.0392,36.3489,36.8261,39.7954,39.2981l5.1537-3.9408c22.6614-18.5092,50.7346-38.254,97.488-38.254,89.4206,0,159.4664,65.9008,159.4664,150.0548,0,84.7725-70.0458,151.2056-159.4664,151.2056-55.7357,0-85.0267-30.5213-102.99-49.2017-10.2344,10.0725-30.4533,30.2914-39.3606,40.277,25.2913,31.3957,76.4168,64.9429,144.048,64.9429,116.32,0,210.96-92.9729,210.96-207.2238,0-113.9525-94.64-206.6693-210.96-206.6693C319.0129,189.0532,273.6921,230.567,257.9055,248.5644ZM402.04,189.0532c-83.0272,0-128.348,41.5138-144.1346,59.5112,12.8005,12.8006,36.3489,36.8261,39.7954,39.2981M402.04,189.0532c-83.0272,0-128.348,41.5138-144.1346,59.5112,33.0194,33.02,10.0758,9.5785,39.7954,39.2981" transform="translate(-9.6112 -10.7368)" fill="#fff"/></svg>