<svg xmlns="http://www.w3.org/2000/svg" width="731.4634" height="746.9166" viewBox="0 0 731.4634 746.9166"><ellipse cx="150.438" cy="170.3036" rx="49.0376" ry="181.1106" transform="translate(-103.205 107.3811) rotate(-39.444)" fill="#524fa8"/><ellipse cx="150.438" cy="170.3036" rx="29.4317" ry="108.7002" transform="translate(-103.205 107.3811) rotate(-39.444)" fill="#f2f2f2" stroke="#db873b" stroke-miterlimit="10" stroke-width="4"/><path d="M465.4831,183.3994c-.0835,0-.1665.0032-.25.0032s-.1665-.0032-.25-.0032c-163.0623,0-295.25,132.188-295.25,295.25s132.188,295.25,295.25,295.25c.0835,0,.1665-.0032.25-.0032s.1665.0032.25.0032c163.0622,0,295.25-132.188,295.25-295.25S628.5453,183.3994,465.4831,183.3994Z" transform="translate(-29.2699 -26.983)" fill="#524fa8"/><path d="M465.4622,208.1118c-.0765,0-.1526.0029-.2291.0029s-.1526-.0029-.2291-.0029c-149.4139,0-270.5378,121.1239-270.5378,270.5376S315.59,749.1873,465.004,749.1873c.0765,0,.1526-.003.2291-.003s.1526.003.2291.003C614.8761,749.1873,736,628.0634,736,478.6494S614.8761,208.1118,465.4622,208.1118Z" transform="translate(-29.2699 -26.983)" fill="#e58f62"/><path d="M465.4513,221c-.0729,0-.1453.0028-.2182.0028s-.1453-.0028-.2182-.0028c-142.296,0-257.65,115.3536-257.65,257.6494s115.3536,257.65,257.65,257.65c.0729,0,.1453-.0028.2182-.0028s.1453.0028.2182.0028c142.296,0,257.65-115.3537,257.65-257.65S607.7473,221,465.4513,221Z" transform="translate(-29.2699 -26.983)" fill="#6a66d9"/><path d="M554.4287,636.6582c-.1475-.2607-9.65-16.6289-38.4639-33.6172-26.8037-15.8037-76.2226-35.3672-159.434-38.8222l-4.9419-.2051,11.6621-45.2422,1.605-.8194c1.6167-.8251,40-20.2158,75.04-20.2158,11.1133,0,20.79,1.9922,28.7617,5.9209,3.3643,1.6582,6.6026,3.4444,9.7207,5.29-13.5937-11.4356-26.2685-16.375-41.6006-16.375-11.3955,0-23.9619,2.6836-39.3261,6.7129-7.3867,1.9375-15.0728,4.7441-22.5054,7.458-14.3584,5.2422-29.2056,10.663-43.7358,10.663-14.2881,0-26.4258-5.2275-37.1065-15.9814-20.86-21.0029-28.1777-48.5557-19.5737-73.7031,8.438-24.66,30.8891-42.22,58.5923-45.8277,3.17-.413,6.4126-.958,9.9121-1.665l.1753-.0352.1777-.02a117.8489,117.8489,0,0,1,12.8765-.6987,116.26,116.26,0,0,1,38.9414,6.6187,151.3272,151.3272,0,0,0-21.2857-9.1036l-8.7109-3.0175,8.1538-4.3c12.2676-6.47,21.4829-14.4483,30.3945-22.1636,14.4854-12.5415,28.168-24.3872,51.9366-27.1309a134.98,134.98,0,0,1,15.4062-.9052c59.001,0,92.3848,41.6914,114.4746,69.28,1.999,2.4956,3.919,4.8941,5.7725,7.1563,8.9726,10.9556,22.6611,20.2749,35.8984,29.2876C653.38,442.99,680.4043,461.39,678.7344,495.0576c-1.9512,39.3467-37.5049,63.7031-69.3252,63.7031h-.001a53.6575,53.6575,0,0,1-26.7168-6.7158c-.25-.1162-1.5937-.6054-2.8935-1.0791a221.6114,221.6114,0,0,1-40.2247-19.125,170.2444,170.2444,0,0,0,29.9034,19.4317l2.69,1.375-.5869,2.9638c-6.7949,34.2754-9.6377,78.9-9.666,79.3477l-.8545,13.667Z" transform="translate(-29.2699 -26.983)" fill="#524fa8"/><path d="M530.9629,620.9717a431.3528,431.3528,0,0,0-137.6714-23.16c-27.42,0-44.2417,2.9619-44.4087,2.9912l-6.2695,1.125,9.6914-34.7851,2.831-.1846c5.3125-.3467,10.752-.5225,16.1675-.5225,88.5611,0,162.3823,46.9141,163.1177,47.3877Z" transform="translate(-29.2699 -26.983)" fill="#524fa8"/><path d="M555.53,626.2891c-5.6114-6.7745-16.4746-17.6455-35.29-28.8516-27.123-16.1533-76.748-36.084-159.7153-40.0469l8.7109-33.792c6.7388-3.2539,40.6451-18.8623,70.66-18.8623,10.0313,0,18.667,1.75,25.667,5.2,9.708,4.7842,18.5088,10.8106,26.2744,16.127,12.38,8.4775,23.0723,15.7978,33.5957,15.7969a21.7267,21.7267,0,0,0,3.9776-.3633,3,3,0,0,0,.3652-5.8057c-.1768-.0576-18.458-6.1553-42.82-28.5176-16.2735-14.9394-31.749-21.6015-50.1778-21.6015-12.1445,0-25.2138,2.7754-41.102,6.9423-7.7041,2.02-15.5464,4.8838-23.13,7.6524-13.7866,5.0342-28.0425,10.2392-41.3349,10.2392-12.3277,0-22.8409-4.5507-32.14-13.914-18.9414-19.0713-25.64-43.9326-17.917-66.5039,7.5694-22.1231,27.83-37.8916,52.8731-41.1529,3.2934-.4292,6.6513-.9916,10.2612-1.7182a110.8794,110.8794,0,0,1,11.9766-.6421c17.6425,0,43.6758,4.1333,67.5039,23.8237a3,3,0,0,0,4.75-3.2832c-.28-.8174-7.0078-19.2876-46.1558-34.3906,10.1548-6.126,18.1782-13.0728,25.9771-19.8242,14.2382-12.3272,26.5341-22.9732,48.1572-25.4693a127.9812,127.9812,0,0,1,14.6035-.8588c55.6387,0,86.4863,38.5249,109.0108,66.6547,2.0156,2.5171,3.9521,4.9356,5.82,7.2168,9.6142,11.7378,23.7265,21.3462,37.375,30.6382,25.6679,17.4756,49.9131,33.9824,48.4375,63.7285-1.7471,35.2373-33.7168,57.05-62.334,57.05h-.001a46.6694,46.6694,0,0,1-23.2314-5.7861,30.3478,30.3478,0,0,0-3.9844-1.5859c-35.7969-13.0323-62.8233-31.794-80.3272-55.7637a3,3,0,0,0-5.1494,3.0205c.7305,1.5938,18.26,38.8584,67.5674,64.8184C559.4307,581.8545,556.66,612.0352,555.53,626.2891Z" transform="translate(-29.2699 -26.983)" fill="#fff"/><path d="M504.1758,605.5508a435.9654,435.9654,0,0,0-110.8843-14.7393,317.4531,317.4531,0,0,0-40.9844,2.4014l5.4053-19.3984c4.4834-.252,9.0454-.379,13.5908-.379C426.3,573.4355,475.4658,591.9443,504.1758,605.5508Z" transform="translate(-29.2699 -26.983)" fill="#fff"/></svg>