<svg id="Layer_1" data-name="Layer 1" xmlns="http://www.w3.org/2000/svg" width="780.2512" height="779.2632" viewBox="0 0 780.2512 779.2632"><circle cx="390.7732" cy="389.7851" r="389.478" fill="#434378" opacity="0.71"/><path id="shadow" d="M628.3543,85.3218C70.8572,61.4,52.5417,574.1711,52.4157,577.8878A387.672,387.672,0,0,1,9.6112,400.2131c0-215.1088,174.3832-389.4763,389.4763-389.4763A387.8024,387.8024,0,0,1,628.3543,85.3218Z" transform="translate(-9.6112 -10.7368)" opacity="0.2"/><g id="messages"><path d="M605.1806,602.51c-36.1445,0-61.6094-12.6611-75.6875-37.6318l-.0733-.1436c-4.2031-9.0928-12.69-10.45-17.3759-10.45a18.0491,18.0491,0,0,0-2.4629.1475l-.1514.0234-152.9868.001a44.1332,44.1332,0,0,1-44.1445-44.0215V435.4559h53.8325a22.9667,22.9667,0,0,1,2.9136-.1719c4.5312,0,15.63,1.2383,20.9716,12.6973C403.34,471.5555,427.62,483.51,462.1806,483.51a5.0487,5.0487,0,0,0,.5713-.0322c-.8819-.5069-1.8936-1.04-2.9532-1.5987-8.6142-4.54-23.03-12.1386-24.8046-35.7617-.1573-2.09,1.0117-4.8076,2.9755-6.9248a11.2679,11.2679,0,0,1,8.2959-3.7363h6.6289a40.1266,40.1266,0,0,0,40.1407-40.0215V344.1571H595.8944a44.133,44.133,0,0,1,44.1407,44.0244V510.4344a44.1315,44.1315,0,0,1-44.1407,44.0215h-6.6289a7.2685,7.2685,0,0,0-5.3642,2.457,6.4414,6.4414,0,0,0-1.919,3.9053c1.6094,21.415,14.29,28.0986,22.6817,32.5215,1.3457.71,2.6172,1.38,3.7168,2.0439,2.6113,1.5742,2.5879,3.2969,2.3418,4.1826C610.1571,601.5994,607.5321,602.51,605.1806,602.51Z" transform="translate(-9.6112 -10.7368)" fill="#fff"/><path id="comment_v2" data-name="comment v2" d="M429.6435,461.5555c-17.5352-4.4043-30.2447-13.7617-38.5235-28.2646-5.1787-10.8155-15.3862-17.0069-28.0756-17.0069a32.2363,32.2363,0,0,0-3.3868.1719H207.4428a32.12,32.12,0,0,1-32.1445-32.0215V262.1815a32.121,32.121,0,0,1,32.1445-32.0244H446.8944a32.119,32.119,0,0,1,32.1407,32.0244V384.4344a32.1174,32.1174,0,0,1-32.1407,32.0215h-6.6289a19.1809,19.1809,0,0,0-14.16,6.2949c-3.5117,3.7842-5.4141,8.63-5.0889,12.9639C421.872,447.1073,425.2743,455.3963,429.6435,461.5555Z" transform="translate(-9.6112 -10.7368)" fill="#fff"/></g></svg>