<svg xmlns="http://www.w3.org/2000/svg" width="66.077" height="70.808" viewBox="0 0 66.077 70.808">
  <g id="Notifcations" transform="translate(63.037 -632.788)">
    <path id="Path_6" data-name="Path 6" d="M3730.7,13080.031a10,10,0,0,0,10-10h-20A10,10,0,0,0,3730.7,13080.031Z" transform="translate(-3760.717 -12376.436)" fill="#fbd8a1"/>
    <path id="Path_7" data-name="Path 7" d="M3679.277,12854.54c-7.036-5.84-8.964-26.834-8.964-27.492a7.911,7.911,0,0,0-7.084-7.637v-.129a9.441,9.441,0,0,0-18.879,0l0,.129a7.911,7.911,0,0,0-7.083,7.637c0,.68-1.933,21.67-8.938,27.492-5,4.162-7.566,8.3-7.566,11.254h66.077C3686.843,12862.841,3684.284,12858.7,3679.277,12854.54Zm-30.177-35.254a4.72,4.72,0,0,1,9.439,0Z" transform="translate(-3683.803 -12177.195)" fill="#fbd8a1"/>
  </g>
</svg>
