<svg xmlns="http://www.w3.org/2000/svg" width="740" height="740" viewBox="0 0 740 740"><path d="M404,28C199.6547,28,34,193.6546,34,398S199.6547,768,404,768,774,602.3453,774,398,608.3453,28,404,28Zm0,724C208.4912,752,50,593.5088,50,398S208.4912,44,404,44,758,202.4912,758,398,599.5088,752,404,752Z" transform="translate(-34 -28)" fill="#fff" opacity="0.7"/><circle cx="370" cy="370" r="354" fill="#fff" opacity="0.19"/><path d="M235.9492,153H495.3829a7.6657,7.6657,0,0,1,5.4675,2.2848L590.82,245.2535h0a7.66,7.66,0,0,1,2.2509,5.4356h.0013V637.3128A7.6881,7.6881,0,0,1,585.3835,645H235.9492a7.688,7.688,0,0,1-7.6879-7.6872V160.6872A7.688,7.688,0,0,1,235.9492,153Zm256.25,15.375H243.6364V629.6255h334.06V253.8726Z" transform="translate(-34 -28)" fill="#fff"/><path d="M503.07,160.6872a7.6879,7.6879,0,0,0-15.3757,0v90.0019a7.6883,7.6883,0,0,0,7.6886,7.6879h90.0006a7.6875,7.6875,0,1,0,0-15.375H503.07Z" transform="translate(-34 -28)" fill="#fff"/><path d="M292.5507,320.682a7.6875,7.6875,0,0,0,0,15.375H528.7814a7.6875,7.6875,0,0,0,0-15.375Z" transform="translate(-34 -28)" fill="#fff"/><path d="M292.5507,420.78a7.6879,7.6879,0,0,0,0,15.3757H528.7814a7.6879,7.6879,0,0,0,0-15.3757Z" transform="translate(-34 -28)" fill="#fff"/><path d="M292.5507,520.8788a7.6872,7.6872,0,1,0,0,15.3744H528.7814a7.6872,7.6872,0,0,0,0-15.3744Z" transform="translate(-34 -28)" fill="#fff"/><polygon points="469.07 151.246 469.07 215.002 532.826 215.002 469.07 151.246" fill="#d0dbe2" fill-rule="evenodd"/><path d="M487.6943,250.6891V168.375H243.6364V629.6255h334.06V258.377H495.3829a7.6883,7.6883,0,0,1-7.6886-7.6879ZM292.5507,320.682H528.7814a7.6875,7.6875,0,0,1,0,15.375H292.5507a7.6875,7.6875,0,0,1,0-15.375Zm0,100.0977H528.7814a7.6879,7.6879,0,0,1,0,15.3757H292.5507a7.6879,7.6879,0,0,1,0-15.3757Zm-7.6872,107.7862a7.687,7.687,0,0,1,7.6872-7.6871H528.7814a7.6872,7.6872,0,0,1,0,15.3744H292.5507A7.6879,7.6879,0,0,1,284.8635,528.5659Z" transform="translate(-34 -28)" fill="#fcfcfc" fill-rule="evenodd" opacity="0.48"/></svg>