<svg id="Layer_1" data-name="Layer 1" xmlns="http://www.w3.org/2000/svg" width="763.7992" height="723.7629" viewBox="0 0 763.7992 723.7629"><path d="M242.13,484.26C108.4048,484.26,0,375.8544,0,242.13A242.13,242.13,0,0,1,70.9179,70.9184c94.6885-94.4266,247.9966-94.2143,342.4232.4742,94.2415,94.5029,94.2418,247.4453.0005,341.9485A240.5456,240.5456,0,0,1,242.13,484.26Zm0-421.143c-98.7083,0-179.013,80.3047-179.013,179.013S143.4212,421.1431,242.13,421.1431,421.143,340.8383,421.143,242.13,340.8378,63.117,242.13,63.117Z" transform="translate(0.0002 -0.2371)" fill="#fbd8a1"/><polygon points="368.519 412.914 416.798 369.637 763.799 654.945 696.003 723.763 368.519 412.914" fill="#fbd8a1"/></svg>