<svg xmlns="http://www.w3.org/2000/svg" width="976.2159" height="290" viewBox="0 0 976.2159 290"><g id="Layer_2" data-name="Layer 2"><rect x="1.2159" y="0.5" width="974.5" height="289" rx="144.4999" fill="#e9e9f5"/><path d="M839,294.5H153.5c-79.9531,0-145-65.0469-145-145s65.0469-145,145-145H839c79.9531,0,145,65.0469,145,145S918.9531,294.5,839,294.5ZM153.5,5.5c-79.4019,0-144,64.5981-144,144s64.5981,144,144,144H839c79.4023,0,144-64.5977,144-144S918.4023,5.5,839,5.5Z" transform="translate(-7.7841 -4.5)" fill="#fff"/><path d="M153.5,284C79.3364,284,19,223.6641,19,149.5S79.3364,15,153.5,15H839c74.1641,0,134.5,60.3364,134.5,134.5S913.1641,284,839,284Z" transform="translate(-7.7841 -4.5)" fill="#f8f8fc"/><path d="M839,284.5H153.5c-74.4395,0-135-60.56-135-135s60.5605-135,135-135H839c74.4395,0,135,60.5605,135,135S913.44,284.5,839,284.5ZM153.5,15.5c-73.8877,0-134,60.1123-134,134s60.1123,134,134,134H839c73.8877,0,134-60.1123,134-134s-60.1123-134-134-134Z" transform="translate(-7.7841 -4.5)" fill="#fff"/><text x="-7.7841" y="-4.5"/></g><g id="Layer_3" data-name="Layer 3"><text transform="translate(369.0485 168.459)" font-size="95.2067" fill="#6363b0" font-family="Interstate-Bold, Interstate" font-weight="700"><tspan letter-spacing="-0.01em">T</tspan><tspan x="59.2183" y="0">imeLine</tspan></text></g><g id="Layer_1" data-name="Layer 1"><circle cx="143.0495" cy="144.9246" r="142.5754" fill="#6363b0"/><path id="shadow" d="M234.286,34.04C30.2042,25.2829,23.5,212.992,23.4534,214.3525A142.6017,142.6017,0,0,1,234.286,34.04Z" transform="translate(-7.7841 -4.5)" opacity="0.2"/><g id="timeline"><path d="M110.431,72.6111h67.7923a36.9927,36.9927,0,0,1,36.9927,36.9927v67.7923a36.9928,36.9928,0,0,1-36.9928,36.9928H110.4309a36.9927,36.9927,0,0,1-36.9927-36.9927V109.6039A36.9928,36.9928,0,0,1,110.431,72.6111Z" fill="#fff"/><rect x="160.2155" y="145.9119" width="2.7981" height="41.6143" transform="translate(-69.4916 98.6444) rotate(-30.0003)" fill="#fff"/><circle cx="144.5055" cy="143.4434" r="52.9434" fill="#6363b0"/><circle cx="152.2896" cy="147.9434" r="5.7323" transform="translate(-67.7913 146.5166) rotate(-45)" fill="#fff"/><path d="M151.3891,143.56h0l-.0049-.0056a.0654.0654,0,0,0-.0148-.016l-20.7639-21.5009a3.1562,3.1562,0,1,0-4.5859,4.3139l20.8428,21.58a.7715.7715,0,0,0,.1653.1258,3.1332,3.1332,0,0,0,4.3614-4.4971Z" transform="translate(-7.7841 -4.5)" fill="#fff"/><path d="M185.5093,139.9458h0l-.0074.0009-.0244.0031-29.6515,3.76a3.1562,3.1562,0,1,0,.7113,6.2563l29.7592-3.7742a.7262.7262,0,0,0,.2017-.0576,3.1321,3.1321,0,0,0,1.3085-5.5912A3.1427,3.1427,0,0,0,185.5093,139.9458Z" transform="translate(-7.7841 -4.5)" fill="#fff"/><circle cx="144.5055" cy="143.4434" r="3.6188" fill="#6363b0"/></g></g></svg>