<svg xmlns="http://www.w3.org/2000/svg" width="976.2159" height="290" viewBox="0 0 976.2159 290"><g id="Layer_2" data-name="Layer 2"><rect x="1.2159" y="0.5" width="974.5" height="289" rx="144.4999" fill="#e9e9f5"/><path d="M839,294.5H153.5c-79.9531,0-145-65.0469-145-145s65.0469-145,145-145H839c79.9531,0,145,65.0469,145,145S918.9531,294.5,839,294.5ZM153.5,5.5c-79.4019,0-144,64.5981-144,144s64.5981,144,144,144H839c79.4023,0,144-64.5977,144-144S918.4023,5.5,839,5.5Z" transform="translate(-7.7841 -4.5)" fill="#fff"/><path d="M153.5,284C79.3364,284,19,223.6641,19,149.5S79.3364,15,153.5,15H839c74.1641,0,134.5,60.3364,134.5,134.5S913.1641,284,839,284Z" transform="translate(-7.7841 -4.5)" fill="#f8f8fc"/><path d="M839,284.5H153.5c-74.4395,0-135-60.56-135-135s60.5605-135,135-135H839c74.4395,0,135,60.5605,135,135S913.44,284.5,839,284.5ZM153.5,15.5c-73.8877,0-134,60.1123-134,134s60.1123,134,134,134H839c73.8877,0,134-60.1123,134-134s-60.1123-134-134-134Z" transform="translate(-7.7841 -4.5)" fill="#fff"/><text x="-7.7841" y="-4.5"/></g><g id="Layer_3" data-name="Layer 3"><text transform="translate(398.0485 168.459)" font-size="95.2067" fill="#6363b0" font-family="Interstate-Bold, Interstate" font-weight="700"><tspan letter-spacing="-0.085em">T</tspan><tspan x="52.0776" y="0" letter-spacing="-0.015em">r</tspan><tspan x="91.3979" y="0">ends</tspan></text></g><g id="Layer_1" data-name="Layer 1"><circle cx="143.0495" cy="144.9246" r="142.5754" fill="#6363b0"/><path id="shadow" d="M234.286,34.04C30.2042,25.2829,23.5,212.992,23.4534,214.3525A142.6017,142.6017,0,0,1,234.286,34.04Z" transform="translate(-7.7841 -4.5)" opacity="0.2"/><g id="Trends"><path d="M71.0339,177.23l19.2316-.0015a5.7706,5.7706,0,0,1,5.7631,5.7687l.0023,8.3737a5.7765,5.7765,0,0,1-5.7643,5.7572L71.04,197.13a5.7731,5.7731,0,0,1-5.7674-5.7628l-.0013-8.3635A5.78,5.78,0,0,1,71.0339,177.23Z" transform="translate(-7.7841 -4.5)" fill="#fff" fill-rule="evenodd"/><path d="M107.57,177.23l19.2213-.0012a5.7861,5.7861,0,0,1,5.7728,5.7678l.0014,8.3635a5.7808,5.7808,0,0,1-5.7682,5.7678l-19.2263.001a5.7811,5.7811,0,0,1-5.7728-5.7623l.009-8.3692A5.7764,5.7764,0,0,1,107.57,177.23Z" transform="translate(-7.7841 -4.5)" fill="#fff" fill-rule="evenodd"/><path d="M144.1,177.2236l19.2267.0038a5.7754,5.7754,0,0,1,5.7619,5.7633l.0078,8.3732a5.7847,5.7847,0,0,1-5.7686,5.763l-19.2263.001a5.7821,5.7821,0,0,1-5.7679-5.7682l.004-8.3639A5.7771,5.7771,0,0,1,144.1,177.2236Z" transform="translate(-7.7841 -4.5)" fill="#fff" fill-rule="evenodd"/><path d="M180.63,177.2279l19.2208-.001a5.775,5.775,0,0,1,5.7678,5.7681l.0019,8.3689a5.7772,5.7772,0,0,1-5.7687,5.7624l-19.2208.0012a5.7806,5.7806,0,0,1-5.7674-5.7634l-.0019-8.3683A5.7816,5.7816,0,0,1,180.63,177.2279Z" transform="translate(-7.7841 -4.5)" fill="#fff" fill-rule="evenodd"/><path d="M217.1548,177.2224l19.2262-.0015a5.7828,5.7828,0,0,1,5.7684,5.7737l-.0039,8.3638a5.7766,5.7766,0,0,1-5.7629,5.7674l-19.2268-.0044a5.7671,5.7671,0,0,1-5.7614-5.7578l-.0074-8.3684A5.7853,5.7853,0,0,1,217.1548,177.2224Z" transform="translate(-7.7841 -4.5)" fill="#fff" fill-rule="evenodd"/><path d="M217.15,154.76l19.2317-.0015a5.7764,5.7764,0,0,1,5.7674,5.7627l.0014,8.3634a5.7818,5.7818,0,0,1-5.7678,5.7733l-19.2262.0011a5.7772,5.7772,0,0,1-5.7624-5.7687l-.0019-8.3683A5.7684,5.7684,0,0,1,217.15,154.76Z" transform="translate(-7.7841 -4.5)" fill="#fff" fill-rule="evenodd"/><path d="M217.1542,132.286l19.2267-.0017a5.7917,5.7917,0,0,1,5.7732,5.7732l-.004,8.3639a5.7787,5.7787,0,0,1-5.7735,5.7629l-19.2209.006a5.7869,5.7869,0,0,1-5.7684-5.7731l-.0009-8.3635A5.78,5.78,0,0,1,217.1542,132.286Z" transform="translate(-7.7841 -4.5)" fill="#fff" fill-rule="evenodd"/><path d="M180.6246,154.76l19.2263-.0064a5.7887,5.7887,0,0,1,5.7727,5.7677l.0015,8.3634a5.7948,5.7948,0,0,1-5.7781,5.7737l-19.2164-.0048a5.7744,5.7744,0,0,1-5.7728-5.7623l-.0014-8.3634A5.7814,5.7814,0,0,1,180.6246,154.76Z" transform="translate(-7.7841 -4.5)" fill="#fff" fill-rule="evenodd"/><path d="M180.6247,132.2918l19.2263-.0015a5.7855,5.7855,0,0,1,5.7727,5.7677l-.0034,8.3639a5.7787,5.7787,0,0,1-5.7682,5.7679l-19.2263.0064a5.794,5.794,0,0,1-5.7683-5.7786l-.0013-8.3634A5.78,5.78,0,0,1,180.6247,132.2918Z" transform="translate(-7.7841 -4.5)" fill="#fff" fill-rule="evenodd"/><path d="M180.6294,109.8176h19.2154a5.7781,5.7781,0,0,1,5.7733,5.7677l-.004,8.3639a5.7742,5.7742,0,0,1-5.7683,5.7672l-19.2159.0007a5.7838,5.7838,0,0,1-5.7723-5.7623l-.0023-8.3742A5.79,5.79,0,0,1,180.6294,109.8176Z" transform="translate(-7.7841 -4.5)" fill="#fff" fill-rule="evenodd"/><path d="M144.0942,154.7607l19.2269-.0011a5.78,5.78,0,0,1,5.7673,5.7628l.0014,8.3688a5.7829,5.7829,0,0,1-5.7731,5.7683l-19.216,0a5.7894,5.7894,0,0,1-5.7732-5.7677l.0035-8.3693A5.7727,5.7727,0,0,1,144.0942,154.7607Z" transform="translate(-7.7841 -4.5)" fill="#fff" fill-rule="evenodd"/><path d="M144.0993,132.2919l19.2268-.0011a5.7811,5.7811,0,0,1,5.7624,5.7687l.0015,8.3634a5.7785,5.7785,0,0,1-5.7681,5.7679l-19.2216.0005a5.7821,5.7821,0,0,1-5.7678-5.7681l-.0009-8.3635A5.7784,5.7784,0,0,1,144.0993,132.2919Z" transform="translate(-7.7841 -4.5)" fill="#fff" fill-rule="evenodd"/><path d="M144.0986,109.8133l19.2213.0043a5.7847,5.7847,0,0,1,5.7678,5.7682l-.004,8.3639a5.7693,5.7693,0,0,1-5.7627,5.7673l-19.2209.0006a5.7783,5.7783,0,0,1-5.7679-5.7682l-.0014-8.3634A5.79,5.79,0,0,1,144.0986,109.8133Z" transform="translate(-7.7841 -4.5)" fill="#fff" fill-rule="evenodd"/><path d="M144.0928,87.3454l19.2262-.0015a5.7826,5.7826,0,0,1,5.7629,5.7741l.0073,8.3684a5.7842,5.7842,0,0,1-5.7686,5.7624l-19.2263.001a5.7854,5.7854,0,0,1-5.7679-5.7682l.004-8.3639A5.7807,5.7807,0,0,1,144.0928,87.3454Z" transform="translate(-7.7841 -4.5)" fill="#fff" fill-rule="evenodd"/><path d="M107.5693,154.7612l19.2214-.0012a5.7814,5.7814,0,0,1,5.7678,5.7683l.0063,8.363a5.7931,5.7931,0,0,1-5.7726,5.7737l-19.2263.001a5.7862,5.7862,0,0,1-5.7634-5.7735l-.0018-8.3688A5.7807,5.7807,0,0,1,107.5693,154.7612Z" transform="translate(-7.7841 -4.5)" fill="#fff" fill-rule="evenodd"/><path d="M107.57,132.2929l19.2208-.0011a5.79,5.79,0,0,1,5.7733,5.7677l-.004,8.3639a5.79,5.79,0,0,1-5.7677,5.7733l-19.2263.001a5.7819,5.7819,0,0,1-5.7628-5.7736l-.0015-8.3634A5.7745,5.7745,0,0,1,107.57,132.2929Z" transform="translate(-7.7841 -4.5)" fill="#fff" fill-rule="evenodd"/><path d="M71.0394,154.7671l19.2269-.0011a5.7755,5.7755,0,0,1,5.7669,5.7574l.0013,8.3689a5.7846,5.7846,0,0,1-5.7672,5.7727l-19.2268.0015a5.7906,5.7906,0,0,1-5.7732-5.7731l.004-8.3639A5.7728,5.7728,0,0,1,71.0394,154.7671Z" transform="translate(-7.7841 -4.5)" fill="#fff" fill-rule="evenodd"/><path d="M71.0392,132.2934l19.2208,0a5.7894,5.7894,0,0,1,5.7733,5.7677l-.0041,8.3639a5.7875,5.7875,0,0,1-5.7623,5.7722l-19.2316.0021a5.7857,5.7857,0,0,1-5.763-5.7742l-.0068-8.3629A5.79,5.79,0,0,1,71.0392,132.2934Z" transform="translate(-7.7841 -4.5)" fill="#fff" fill-rule="evenodd"/><path d="M71.0383,109.82l19.2262-.0011a5.7811,5.7811,0,0,1,5.7625,5.7687l.0019,8.3688a5.7758,5.7758,0,0,1-5.7632,5.762l-19.2318.0015a5.784,5.784,0,0,1-5.7674-5.7627l.0036-8.3694A5.7857,5.7857,0,0,1,71.0383,109.82Z" transform="translate(-7.7841 -4.5)" fill="#fff" fill-rule="evenodd"/></g></g></svg>