<svg id="Layer_1" data-name="Layer 1" xmlns="http://www.w3.org/2000/svg" width="477.5297" height="474.5198" viewBox="0 0 477.5297 474.5198"><path d="M22.3687,454.2531H470.1519a14.8735,14.8735,0,0,1,0,29.7469H22.3687a14.8735,14.8735,0,1,1,0-29.7469Z" transform="translate(-7.4951 -9.4802)" fill="#fffdfd" fill-rule="evenodd"/><path d="M293.1136,427.9192a7.6388,7.6388,0,0,1-7.64,7.6382H207.0459c-7.1619,0-7.6382-6.1038-7.6382-11.36a7.6382,7.6382,0,0,1,7.6382-7.6382H285.474C292.6366,416.5592,293.1136,422.663,293.1136,427.9192Z" transform="translate(-7.4951 -9.4802)" fill="#fffdfd" fill-rule="evenodd"/><path d="M293.1136,399.2348a7.6388,7.6388,0,0,1-7.64,7.6382H207.0459a7.6382,7.6382,0,0,1-7.6382-7.6382V185.5424l-44.9954,44.9955a7.6367,7.6367,0,0,1-10.8015-.0007L87.757,174.6846a7.6386,7.6386,0,0,1,.0006-10.8019L240.86,10.78c2.885-2.8861,10.8787-.077,10.8014,0L404.7352,163.8548l.0278.0279a7.6371,7.6371,0,0,1,0,10.8013L348.91,230.5379a7.6359,7.6359,0,0,1-10.8008-.0007l-44.9954-44.9948Z" transform="translate(-7.4951 -9.4802)" fill="#fffdfd" fill-rule="evenodd"/></svg>